G75*
%MOIN*%
%OFA0B0*%
%FSLAX25Y25*%
%IPPOS*%
%LPD*%
%AMOC8*
5,1,8,0,0,1.08239X$1,22.5*
%
%ADD10C,0.00000*%
%ADD11C,0.00800*%
%ADD12R,0.03000X0.06000*%
%ADD13C,0.02978*%
%ADD14C,0.02400*%
%ADD15C,0.01600*%
%ADD16OC8,0.04750*%
D10*
X0033333Y0005000D02*
X0033333Y0031250D01*
X0033546Y0031253D01*
X0033759Y0031260D01*
X0033972Y0031273D01*
X0034184Y0031291D01*
X0034396Y0031315D01*
X0034607Y0031343D01*
X0034817Y0031377D01*
X0035027Y0031416D01*
X0035236Y0031459D01*
X0035443Y0031508D01*
X0035649Y0031562D01*
X0035854Y0031621D01*
X0036057Y0031685D01*
X0036259Y0031754D01*
X0036459Y0031827D01*
X0036657Y0031906D01*
X0036853Y0031989D01*
X0037047Y0032077D01*
X0037239Y0032170D01*
X0037428Y0032268D01*
X0037615Y0032370D01*
X0037800Y0032476D01*
X0037982Y0032587D01*
X0038161Y0032703D01*
X0038337Y0032822D01*
X0038511Y0032946D01*
X0038681Y0033074D01*
X0038848Y0033207D01*
X0039012Y0033343D01*
X0039172Y0033483D01*
X0039329Y0033627D01*
X0039482Y0033775D01*
X0039632Y0033927D01*
X0039778Y0034082D01*
X0039920Y0034241D01*
X0040059Y0034403D01*
X0040193Y0034568D01*
X0040323Y0034737D01*
X0040449Y0034909D01*
X0040571Y0035084D01*
X0040689Y0035261D01*
X0040802Y0035442D01*
X0040911Y0035625D01*
X0041015Y0035811D01*
X0041115Y0035999D01*
X0041210Y0036190D01*
X0041300Y0036383D01*
X0041386Y0036578D01*
X0041467Y0036775D01*
X0041543Y0036974D01*
X0041614Y0037175D01*
X0041681Y0037377D01*
X0041742Y0037581D01*
X0041798Y0037787D01*
X0041850Y0037994D01*
X0041896Y0038202D01*
X0041937Y0038411D01*
X0041974Y0038621D01*
X0042005Y0038831D01*
X0042031Y0039043D01*
X0042051Y0039255D01*
X0042067Y0039468D01*
X0042077Y0039680D01*
X0042082Y0039893D01*
X0042082Y0040107D01*
X0042077Y0040320D01*
X0042067Y0040532D01*
X0042051Y0040745D01*
X0042031Y0040957D01*
X0042005Y0041169D01*
X0041974Y0041379D01*
X0041937Y0041589D01*
X0041896Y0041798D01*
X0041850Y0042006D01*
X0041798Y0042213D01*
X0041742Y0042419D01*
X0041681Y0042623D01*
X0041614Y0042825D01*
X0041543Y0043026D01*
X0041467Y0043225D01*
X0041386Y0043422D01*
X0041300Y0043617D01*
X0041210Y0043810D01*
X0041115Y0044001D01*
X0041015Y0044189D01*
X0040911Y0044375D01*
X0040802Y0044558D01*
X0040689Y0044739D01*
X0040571Y0044916D01*
X0040449Y0045091D01*
X0040323Y0045263D01*
X0040193Y0045432D01*
X0040059Y0045597D01*
X0039920Y0045759D01*
X0039778Y0045918D01*
X0039632Y0046073D01*
X0039482Y0046225D01*
X0039329Y0046373D01*
X0039172Y0046517D01*
X0039012Y0046657D01*
X0038848Y0046793D01*
X0038681Y0046926D01*
X0038511Y0047054D01*
X0038337Y0047178D01*
X0038161Y0047297D01*
X0037982Y0047413D01*
X0037800Y0047524D01*
X0037615Y0047630D01*
X0037428Y0047732D01*
X0037239Y0047830D01*
X0037047Y0047923D01*
X0036853Y0048011D01*
X0036657Y0048094D01*
X0036459Y0048173D01*
X0036259Y0048246D01*
X0036057Y0048315D01*
X0035854Y0048379D01*
X0035649Y0048438D01*
X0035443Y0048492D01*
X0035236Y0048541D01*
X0035027Y0048584D01*
X0034817Y0048623D01*
X0034607Y0048657D01*
X0034396Y0048685D01*
X0034184Y0048709D01*
X0033972Y0048727D01*
X0033759Y0048740D01*
X0033546Y0048747D01*
X0033333Y0048750D01*
X0033333Y0054961D01*
X0153333Y0055000D01*
X0153333Y0048750D01*
X0153119Y0048754D01*
X0152905Y0048753D01*
X0152691Y0048746D01*
X0152477Y0048735D01*
X0152264Y0048718D01*
X0152051Y0048696D01*
X0151839Y0048668D01*
X0151627Y0048636D01*
X0151416Y0048598D01*
X0151207Y0048556D01*
X0150998Y0048508D01*
X0150790Y0048455D01*
X0150584Y0048397D01*
X0150380Y0048334D01*
X0150177Y0048266D01*
X0149975Y0048193D01*
X0149776Y0048115D01*
X0149578Y0048032D01*
X0149383Y0047944D01*
X0149190Y0047852D01*
X0148999Y0047755D01*
X0148811Y0047653D01*
X0148625Y0047547D01*
X0148441Y0047436D01*
X0148261Y0047321D01*
X0148083Y0047202D01*
X0147909Y0047078D01*
X0147737Y0046950D01*
X0147569Y0046818D01*
X0147404Y0046681D01*
X0147242Y0046541D01*
X0147084Y0046397D01*
X0146929Y0046249D01*
X0146778Y0046097D01*
X0146631Y0045941D01*
X0146488Y0045782D01*
X0146348Y0045620D01*
X0146213Y0045454D01*
X0146081Y0045285D01*
X0145954Y0045113D01*
X0145831Y0044937D01*
X0145713Y0044759D01*
X0145598Y0044578D01*
X0145489Y0044394D01*
X0145384Y0044208D01*
X0145283Y0044019D01*
X0145187Y0043827D01*
X0145096Y0043634D01*
X0145009Y0043438D01*
X0144928Y0043240D01*
X0144851Y0043040D01*
X0144779Y0042838D01*
X0144712Y0042635D01*
X0144650Y0042430D01*
X0144593Y0042224D01*
X0144541Y0042016D01*
X0144495Y0041807D01*
X0144453Y0041597D01*
X0144416Y0041386D01*
X0144385Y0041174D01*
X0144359Y0040962D01*
X0144338Y0040748D01*
X0144322Y0040535D01*
X0144312Y0040321D01*
X0144307Y0040107D01*
X0144307Y0039893D01*
X0144312Y0039679D01*
X0144322Y0039465D01*
X0144338Y0039252D01*
X0144359Y0039038D01*
X0144385Y0038826D01*
X0144416Y0038614D01*
X0144453Y0038403D01*
X0144495Y0038193D01*
X0144541Y0037984D01*
X0144593Y0037776D01*
X0144650Y0037570D01*
X0144712Y0037365D01*
X0144779Y0037162D01*
X0144851Y0036960D01*
X0144928Y0036760D01*
X0145009Y0036562D01*
X0145096Y0036366D01*
X0145187Y0036173D01*
X0145283Y0035981D01*
X0145384Y0035792D01*
X0145489Y0035606D01*
X0145598Y0035422D01*
X0145713Y0035241D01*
X0145831Y0035063D01*
X0145954Y0034887D01*
X0146081Y0034715D01*
X0146213Y0034546D01*
X0146348Y0034380D01*
X0146488Y0034218D01*
X0146631Y0034059D01*
X0146778Y0033903D01*
X0146929Y0033751D01*
X0147084Y0033603D01*
X0147242Y0033459D01*
X0147404Y0033319D01*
X0147569Y0033182D01*
X0147737Y0033050D01*
X0147909Y0032922D01*
X0148083Y0032798D01*
X0148261Y0032679D01*
X0148441Y0032564D01*
X0148625Y0032453D01*
X0148811Y0032347D01*
X0148999Y0032245D01*
X0149190Y0032148D01*
X0149383Y0032056D01*
X0149578Y0031968D01*
X0149776Y0031885D01*
X0149975Y0031807D01*
X0150177Y0031734D01*
X0150380Y0031666D01*
X0150584Y0031603D01*
X0150790Y0031545D01*
X0150998Y0031492D01*
X0151207Y0031444D01*
X0151416Y0031402D01*
X0151627Y0031364D01*
X0151839Y0031332D01*
X0152051Y0031304D01*
X0152264Y0031282D01*
X0152477Y0031265D01*
X0152691Y0031254D01*
X0152905Y0031247D01*
X0153119Y0031246D01*
X0153333Y0031250D01*
X0153333Y0005000D01*
X0033333Y0005000D01*
D11*
X0037161Y0012900D02*
X0039963Y0012900D01*
X0037161Y0015702D01*
X0037161Y0016403D01*
X0037862Y0017104D01*
X0039263Y0017104D01*
X0039963Y0016403D01*
X0041565Y0013601D02*
X0041565Y0012900D01*
X0042265Y0012900D01*
X0042265Y0013601D01*
X0041565Y0013601D01*
X0044067Y0012900D02*
X0046869Y0012900D01*
X0045468Y0012900D02*
X0045468Y0017104D01*
X0046869Y0015702D01*
X0048671Y0015702D02*
X0050072Y0012900D01*
X0051473Y0015702D01*
X0053275Y0015002D02*
X0053275Y0014301D01*
X0056077Y0014301D01*
X0056077Y0013601D02*
X0056077Y0015002D01*
X0055377Y0015702D01*
X0053975Y0015702D01*
X0053275Y0015002D01*
X0055377Y0012900D02*
X0056077Y0013601D01*
X0055377Y0012900D02*
X0053975Y0012900D01*
X0057812Y0015702D02*
X0058513Y0015702D01*
X0059914Y0014301D01*
X0059914Y0012900D02*
X0059914Y0015702D01*
X0066319Y0016403D02*
X0067020Y0017104D01*
X0068421Y0017104D01*
X0069122Y0016403D01*
X0069122Y0013601D01*
X0068421Y0012900D01*
X0067020Y0012900D01*
X0066319Y0013601D01*
X0070923Y0017104D02*
X0073725Y0017104D01*
X0073725Y0012900D01*
X0075527Y0013601D02*
X0076228Y0012900D01*
X0078329Y0012900D01*
X0078329Y0017104D01*
X0076228Y0017104D01*
X0075527Y0016403D01*
X0075527Y0015702D01*
X0076228Y0015002D01*
X0078329Y0015002D01*
X0080131Y0015002D02*
X0082933Y0015002D01*
X0082933Y0015702D02*
X0081532Y0017104D01*
X0080131Y0015702D01*
X0080131Y0012900D01*
X0082933Y0012900D02*
X0082933Y0015702D01*
X0076228Y0015002D02*
X0075527Y0014301D01*
X0075527Y0013601D01*
X0073725Y0015002D02*
X0072324Y0015002D01*
X0092186Y0015702D02*
X0092886Y0015002D01*
X0094288Y0015002D01*
X0094988Y0015702D01*
X0094988Y0016403D01*
X0094288Y0017104D01*
X0092886Y0017104D01*
X0092186Y0016403D01*
X0092186Y0015702D01*
X0092886Y0015002D02*
X0092186Y0014301D01*
X0092186Y0013601D01*
X0092886Y0012900D01*
X0094288Y0012900D01*
X0094988Y0013601D01*
X0094988Y0014301D01*
X0094288Y0015002D01*
X0096790Y0012900D02*
X0099592Y0012900D01*
X0098191Y0012900D02*
X0098191Y0017104D01*
X0099592Y0015702D01*
X0101394Y0016403D02*
X0104196Y0013601D01*
X0103495Y0012900D01*
X0102094Y0012900D01*
X0101394Y0013601D01*
X0101394Y0016403D01*
X0102094Y0017104D01*
X0103495Y0017104D01*
X0104196Y0016403D01*
X0104196Y0013601D01*
X0105998Y0012900D02*
X0108800Y0012900D01*
X0105998Y0015702D01*
X0105998Y0016403D01*
X0106698Y0017104D01*
X0108099Y0017104D01*
X0108800Y0016403D01*
X0115205Y0015702D02*
X0115205Y0012199D01*
X0115906Y0011499D01*
X0116607Y0011499D01*
X0117307Y0012900D02*
X0115205Y0012900D01*
X0117307Y0012900D02*
X0118008Y0013601D01*
X0118008Y0015702D01*
X0119743Y0015702D02*
X0121844Y0014301D01*
X0119743Y0012900D01*
X0121844Y0012900D02*
X0121844Y0017104D01*
X0123646Y0015002D02*
X0123646Y0012900D01*
X0126448Y0012900D02*
X0126448Y0015702D01*
X0124347Y0015702D01*
X0123646Y0015002D01*
X0128116Y0012900D02*
X0129518Y0012900D01*
X0128817Y0012900D02*
X0128817Y0015702D01*
X0129518Y0015702D01*
X0128817Y0017104D02*
X0128817Y0017804D01*
X0131886Y0017104D02*
X0131886Y0012900D01*
X0131186Y0012900D02*
X0132587Y0012900D01*
X0134388Y0013601D02*
X0135089Y0012900D01*
X0137191Y0012900D01*
X0137191Y0017104D01*
X0135089Y0017104D01*
X0134388Y0016403D01*
X0134388Y0015702D01*
X0135089Y0015002D01*
X0137191Y0015002D01*
X0135089Y0015002D02*
X0134388Y0014301D01*
X0134388Y0013601D01*
X0138792Y0013601D02*
X0138792Y0012900D01*
X0139493Y0012900D01*
X0139493Y0013601D01*
X0138792Y0013601D01*
X0141228Y0015702D02*
X0141928Y0015702D01*
X0143329Y0014301D01*
X0143329Y0012900D02*
X0143329Y0015702D01*
X0145131Y0017104D02*
X0145131Y0012900D01*
X0147933Y0012900D02*
X0147933Y0017104D01*
X0146532Y0015702D01*
X0145131Y0017104D01*
X0132587Y0017104D02*
X0131886Y0017104D01*
D12*
X0138333Y0027750D03*
X0123333Y0027750D03*
X0123333Y0049750D03*
X0138333Y0049750D03*
D13*
X0147932Y0051106D03*
X0140833Y0042500D03*
X0140833Y0037500D03*
X0130833Y0027500D03*
X0126458Y0025625D03*
X0130833Y0023750D03*
X0115833Y0041250D03*
X0110833Y0041250D03*
X0105833Y0041250D03*
X0100833Y0041250D03*
X0093333Y0041250D03*
X0085833Y0050000D03*
X0059583Y0045000D03*
X0059583Y0040000D03*
X0059583Y0030000D03*
X0068333Y0030000D03*
X0085833Y0030000D03*
X0043333Y0030000D03*
X0043333Y0050000D03*
D14*
X0059583Y0030000D02*
X0068333Y0022500D01*
X0107083Y0022500D01*
X0119583Y0035000D01*
X0125833Y0035000D01*
X0129391Y0031442D01*
X0130641Y0027788D01*
X0130833Y0027500D01*
X0130833Y0023750D01*
X0130833Y0027500D02*
X0140833Y0037500D01*
X0140833Y0042500D01*
X0140833Y0044008D01*
X0147932Y0051106D01*
X0137083Y0040000D01*
X0123333Y0040000D01*
X0117083Y0046250D01*
X0098333Y0046250D01*
X0093333Y0041250D01*
X0147932Y0051106D02*
X0148075Y0051250D01*
X0148333Y0051250D01*
D15*
X0147599Y0049931D02*
X0144480Y0047405D01*
X0144480Y0047405D01*
X0144480Y0047405D01*
X0142437Y0043950D01*
X0141727Y0040000D01*
X0142437Y0036050D01*
X0144480Y0032595D01*
X0147599Y0030069D01*
X0150933Y0028946D01*
X0150933Y0007400D01*
X0035733Y0007400D01*
X0035733Y0010461D01*
X0036604Y0010100D01*
X0040520Y0010100D01*
X0040764Y0010201D01*
X0041008Y0010100D01*
X0042822Y0010100D01*
X0043166Y0010242D01*
X0043510Y0010100D01*
X0047426Y0010100D01*
X0048455Y0010526D01*
X0048490Y0010561D01*
X0048504Y0010553D01*
X0048658Y0010420D01*
X0048998Y0010307D01*
X0049318Y0010147D01*
X0049521Y0010132D01*
X0049715Y0010068D01*
X0050072Y0010093D01*
X0050429Y0010068D01*
X0050623Y0010132D01*
X0050826Y0010147D01*
X0051146Y0010307D01*
X0051486Y0010420D01*
X0051640Y0010553D01*
X0051822Y0010645D01*
X0052031Y0010885D01*
X0052389Y0010526D01*
X0053418Y0010100D01*
X0055933Y0010100D01*
X0056963Y0010526D01*
X0057645Y0011209D01*
X0058328Y0010526D01*
X0059357Y0010100D01*
X0060471Y0010100D01*
X0061500Y0010526D01*
X0062287Y0011314D01*
X0062714Y0012343D01*
X0062714Y0016259D01*
X0062287Y0017288D01*
X0061500Y0018076D01*
X0060471Y0018502D01*
X0059357Y0018502D01*
X0059213Y0018443D01*
X0059069Y0018502D01*
X0057255Y0018502D01*
X0056594Y0018229D01*
X0055933Y0018502D01*
X0053418Y0018502D01*
X0052716Y0018211D01*
X0052227Y0018456D01*
X0051116Y0018535D01*
X0050072Y0018187D01*
X0049028Y0018535D01*
X0048065Y0018466D01*
X0047842Y0018690D01*
X0047054Y0019477D01*
X0046439Y0019732D01*
X0046025Y0019904D01*
X0044911Y0019904D01*
X0043882Y0019477D01*
X0043094Y0018690D01*
X0042840Y0018075D01*
X0042668Y0017661D01*
X0042668Y0017190D01*
X0042337Y0017989D01*
X0041637Y0018690D01*
X0040872Y0019454D01*
X0040849Y0019477D01*
X0040849Y0019477D01*
X0040252Y0019724D01*
X0039820Y0019904D01*
X0037305Y0019904D01*
X0036884Y0019730D01*
X0036276Y0019477D01*
X0035733Y0018935D01*
X0035733Y0029008D01*
X0038994Y0030195D01*
X0038994Y0030195D01*
X0042006Y0032722D01*
X0042006Y0032722D01*
X0042006Y0032722D01*
X0043973Y0036128D01*
X0044655Y0040000D01*
X0043973Y0043872D01*
X0042006Y0047278D01*
X0038994Y0049805D01*
X0035733Y0050992D01*
X0035733Y0052561D01*
X0119433Y0052589D01*
X0119433Y0046273D01*
X0119799Y0045391D01*
X0120474Y0044715D01*
X0121356Y0044350D01*
X0125311Y0044350D01*
X0126193Y0044715D01*
X0126868Y0045391D01*
X0127233Y0046273D01*
X0127233Y0052591D01*
X0135033Y0052594D01*
X0135033Y0049750D01*
X0135033Y0046513D01*
X0135156Y0046055D01*
X0135393Y0045645D01*
X0135728Y0045310D01*
X0136139Y0045073D01*
X0136596Y0044950D01*
X0138333Y0044950D01*
X0138333Y0049750D01*
X0138333Y0049750D01*
X0135033Y0049750D01*
X0138333Y0049750D01*
X0138333Y0049750D01*
X0138333Y0044950D01*
X0140070Y0044950D01*
X0140528Y0045073D01*
X0140939Y0045310D01*
X0141274Y0045645D01*
X0141511Y0046055D01*
X0141633Y0046513D01*
X0141633Y0049750D01*
X0141633Y0052596D01*
X0150933Y0052599D01*
X0150933Y0051054D01*
X0147599Y0049931D01*
X0147599Y0049931D01*
X0147133Y0049554D02*
X0141633Y0049554D01*
X0141633Y0049750D02*
X0138333Y0049750D01*
X0141633Y0049750D01*
X0141633Y0051152D02*
X0150933Y0051152D01*
X0145160Y0047955D02*
X0141633Y0047955D01*
X0141591Y0046357D02*
X0143860Y0046357D01*
X0142915Y0044758D02*
X0126236Y0044758D01*
X0127233Y0046357D02*
X0135075Y0046357D01*
X0135033Y0047955D02*
X0127233Y0047955D01*
X0127233Y0049554D02*
X0135033Y0049554D01*
X0135033Y0051152D02*
X0127233Y0051152D01*
X0119433Y0051152D02*
X0035733Y0051152D01*
X0038994Y0049805D02*
X0038994Y0049805D01*
X0039294Y0049554D02*
X0119433Y0049554D01*
X0119433Y0047955D02*
X0083310Y0047955D01*
X0083896Y0047713D02*
X0082720Y0048200D01*
X0061883Y0048200D01*
X0061786Y0048297D01*
X0060357Y0048889D01*
X0058810Y0048889D01*
X0057380Y0048297D01*
X0056286Y0047203D01*
X0055694Y0045774D01*
X0055694Y0044226D01*
X0056286Y0042797D01*
X0056584Y0042500D01*
X0056286Y0042203D01*
X0055694Y0040774D01*
X0055694Y0039226D01*
X0056286Y0037797D01*
X0057380Y0036703D01*
X0058810Y0036111D01*
X0060357Y0036111D01*
X0061786Y0036703D01*
X0061883Y0036800D01*
X0079508Y0036800D01*
X0083321Y0032987D01*
X0082536Y0032203D01*
X0081944Y0030774D01*
X0081944Y0029450D01*
X0073409Y0029450D01*
X0072222Y0030637D01*
X0072222Y0030774D01*
X0071630Y0032203D01*
X0070536Y0033297D01*
X0069107Y0033889D01*
X0067560Y0033889D01*
X0066130Y0033297D01*
X0065036Y0032203D01*
X0064444Y0030774D01*
X0064444Y0029226D01*
X0065036Y0027797D01*
X0066130Y0026703D01*
X0067560Y0026111D01*
X0067697Y0026111D01*
X0069370Y0024437D01*
X0070271Y0023537D01*
X0071447Y0023050D01*
X0101470Y0023050D01*
X0102646Y0023537D01*
X0103546Y0024437D01*
X0116470Y0037361D01*
X0116607Y0037361D01*
X0118036Y0037953D01*
X0119130Y0039047D01*
X0119722Y0040476D01*
X0119722Y0042024D01*
X0119130Y0043453D01*
X0118036Y0044547D01*
X0116607Y0045139D01*
X0115060Y0045139D01*
X0113630Y0044547D01*
X0113333Y0044250D01*
X0113036Y0044547D01*
X0111607Y0045139D01*
X0110060Y0045139D01*
X0108630Y0044547D01*
X0108333Y0044250D01*
X0108036Y0044547D01*
X0106607Y0045139D01*
X0105060Y0045139D01*
X0103630Y0044547D01*
X0103333Y0044250D01*
X0103036Y0044547D01*
X0101607Y0045139D01*
X0100060Y0045139D01*
X0098630Y0044547D01*
X0097536Y0043453D01*
X0096944Y0042024D01*
X0096944Y0041887D01*
X0095758Y0040700D01*
X0090909Y0040700D01*
X0083896Y0047713D01*
X0085252Y0046357D02*
X0119433Y0046357D01*
X0120431Y0044758D02*
X0117526Y0044758D01*
X0119252Y0043160D02*
X0142295Y0043160D01*
X0142437Y0043950D02*
X0142437Y0043950D01*
X0142007Y0041561D02*
X0119722Y0041561D01*
X0119510Y0039963D02*
X0141733Y0039963D01*
X0141727Y0040000D02*
X0141727Y0040000D01*
X0142021Y0038364D02*
X0118447Y0038364D01*
X0115875Y0036766D02*
X0142308Y0036766D01*
X0142437Y0036050D02*
X0142437Y0036050D01*
X0142959Y0035167D02*
X0114276Y0035167D01*
X0112678Y0033569D02*
X0143904Y0033569D01*
X0144480Y0032595D02*
X0144480Y0032595D01*
X0145252Y0031970D02*
X0141159Y0031970D01*
X0141274Y0031855D02*
X0140939Y0032190D01*
X0140528Y0032427D01*
X0140070Y0032550D01*
X0138333Y0032550D01*
X0136596Y0032550D01*
X0136139Y0032427D01*
X0135728Y0032190D01*
X0135393Y0031855D01*
X0135156Y0031445D01*
X0135033Y0030987D01*
X0135033Y0027750D01*
X0135033Y0024513D01*
X0135156Y0024055D01*
X0135393Y0023645D01*
X0135728Y0023310D01*
X0136139Y0023073D01*
X0136596Y0022950D01*
X0138333Y0022950D01*
X0138333Y0027750D01*
X0138333Y0027750D01*
X0135033Y0027750D01*
X0138333Y0027750D01*
X0138333Y0032550D01*
X0138333Y0027750D01*
X0138333Y0027750D01*
X0138333Y0027750D01*
X0138333Y0022950D01*
X0140070Y0022950D01*
X0140528Y0023073D01*
X0140939Y0023310D01*
X0141274Y0023645D01*
X0141511Y0024055D01*
X0141633Y0024513D01*
X0141633Y0027750D01*
X0141633Y0030987D01*
X0141511Y0031445D01*
X0141274Y0031855D01*
X0141633Y0030372D02*
X0147225Y0030372D01*
X0147599Y0030069D02*
X0147599Y0030069D01*
X0150933Y0028773D02*
X0141633Y0028773D01*
X0141633Y0027750D02*
X0138333Y0027750D01*
X0138333Y0027750D01*
X0141633Y0027750D01*
X0141633Y0027175D02*
X0150933Y0027175D01*
X0150933Y0025576D02*
X0141633Y0025576D01*
X0141466Y0023978D02*
X0150933Y0023978D01*
X0150933Y0022379D02*
X0128712Y0022379D01*
X0128661Y0022328D02*
X0129755Y0023422D01*
X0130347Y0024851D01*
X0130347Y0026399D01*
X0129755Y0027828D01*
X0128661Y0028922D01*
X0127233Y0029513D01*
X0127233Y0031227D01*
X0126868Y0032109D01*
X0126193Y0032785D01*
X0125311Y0033150D01*
X0121356Y0033150D01*
X0120474Y0032785D01*
X0119799Y0032109D01*
X0119433Y0031227D01*
X0119433Y0024273D01*
X0119799Y0023391D01*
X0120474Y0022715D01*
X0121356Y0022350D01*
X0124233Y0022350D01*
X0124255Y0022328D01*
X0125685Y0021736D01*
X0127232Y0021736D01*
X0128661Y0022328D01*
X0128260Y0020604D02*
X0127231Y0020178D01*
X0126443Y0019390D01*
X0126076Y0018502D01*
X0124296Y0018502D01*
X0124218Y0018690D01*
X0123430Y0019477D01*
X0122401Y0019904D01*
X0121287Y0019904D01*
X0120258Y0019477D01*
X0119471Y0018690D01*
X0119387Y0018487D01*
X0118858Y0018381D01*
X0118565Y0018502D01*
X0117451Y0018502D01*
X0116607Y0018153D01*
X0115762Y0018502D01*
X0114648Y0018502D01*
X0113619Y0018076D01*
X0112832Y0017288D01*
X0112405Y0016259D01*
X0112405Y0011642D01*
X0112652Y0011048D01*
X0112832Y0010613D01*
X0113532Y0009913D01*
X0113532Y0009913D01*
X0114320Y0009125D01*
X0114929Y0008873D01*
X0115349Y0008699D01*
X0117164Y0008699D01*
X0118193Y0009125D01*
X0118980Y0009913D01*
X0119089Y0010175D01*
X0119740Y0010045D01*
X0120832Y0010261D01*
X0120858Y0010278D01*
X0121287Y0010100D01*
X0122401Y0010100D01*
X0122745Y0010242D01*
X0123089Y0010100D01*
X0124203Y0010100D01*
X0125047Y0010450D01*
X0125891Y0010100D01*
X0127005Y0010100D01*
X0127282Y0010215D01*
X0127559Y0010100D01*
X0130075Y0010100D01*
X0130352Y0010215D01*
X0130629Y0010100D01*
X0133144Y0010100D01*
X0133838Y0010388D01*
X0134532Y0010100D01*
X0137748Y0010100D01*
X0137992Y0010201D01*
X0138235Y0010100D01*
X0140050Y0010100D01*
X0141079Y0010526D01*
X0141411Y0010859D01*
X0141743Y0010526D01*
X0142772Y0010100D01*
X0143886Y0010100D01*
X0144230Y0010242D01*
X0144574Y0010100D01*
X0145688Y0010100D01*
X0146532Y0010450D01*
X0147376Y0010100D01*
X0148490Y0010100D01*
X0149519Y0010526D01*
X0150307Y0011314D01*
X0150733Y0012343D01*
X0150733Y0017661D01*
X0150552Y0018099D01*
X0150307Y0018690D01*
X0149519Y0019477D01*
X0149490Y0019489D01*
X0148490Y0019904D01*
X0147376Y0019904D01*
X0146938Y0019722D01*
X0146532Y0019554D01*
X0146102Y0019732D01*
X0145688Y0019904D01*
X0144574Y0019904D01*
X0143545Y0019477D01*
X0142757Y0018690D01*
X0142660Y0018456D01*
X0142629Y0018443D01*
X0142485Y0018502D01*
X0140671Y0018502D01*
X0139793Y0018139D01*
X0139565Y0018690D01*
X0138777Y0019477D01*
X0137748Y0019904D01*
X0134532Y0019904D01*
X0134100Y0019724D01*
X0133838Y0019616D01*
X0133144Y0019904D01*
X0131329Y0019904D01*
X0130868Y0019713D01*
X0130403Y0020178D01*
X0129374Y0020604D01*
X0128260Y0020604D01*
X0126357Y0019182D02*
X0123726Y0019182D01*
X0119963Y0019182D02*
X0109981Y0019182D01*
X0109708Y0019454D02*
X0109685Y0019477D01*
X0109089Y0019724D01*
X0108656Y0019904D01*
X0106141Y0019904D01*
X0105721Y0019730D01*
X0105112Y0019477D01*
X0105097Y0019462D01*
X0105082Y0019477D01*
X0104473Y0019730D01*
X0104052Y0019904D01*
X0101537Y0019904D01*
X0101105Y0019724D01*
X0100508Y0019477D01*
X0100485Y0019454D01*
X0100143Y0019112D01*
X0099777Y0019477D01*
X0099162Y0019732D01*
X0098748Y0019904D01*
X0097634Y0019904D01*
X0096605Y0019477D01*
X0096239Y0019112D01*
X0095874Y0019477D01*
X0095265Y0019730D01*
X0094845Y0019904D01*
X0092329Y0019904D01*
X0091897Y0019724D01*
X0091300Y0019477D01*
X0091277Y0019454D01*
X0090513Y0018690D01*
X0090329Y0018506D01*
X0090311Y0018525D01*
X0086356Y0018525D01*
X0085213Y0017382D01*
X0083906Y0018690D01*
X0083118Y0019477D01*
X0082683Y0019657D01*
X0082089Y0019904D01*
X0080975Y0019904D01*
X0080364Y0019650D01*
X0079946Y0019477D01*
X0079931Y0019462D01*
X0079915Y0019477D01*
X0078886Y0019904D01*
X0075671Y0019904D01*
X0075238Y0019724D01*
X0074977Y0019616D01*
X0074282Y0019904D01*
X0070366Y0019904D01*
X0069672Y0019616D01*
X0069410Y0019724D01*
X0068978Y0019904D01*
X0066463Y0019904D01*
X0066043Y0019730D01*
X0065434Y0019477D01*
X0064646Y0018690D01*
X0064646Y0018690D01*
X0063945Y0017989D01*
X0063519Y0016960D01*
X0063519Y0015846D01*
X0063869Y0015002D01*
X0063519Y0014158D01*
X0063519Y0013044D01*
X0063945Y0012015D01*
X0065434Y0010526D01*
X0066463Y0010100D01*
X0068978Y0010100D01*
X0070007Y0010526D01*
X0070795Y0011314D01*
X0071189Y0011708D01*
X0071352Y0011314D01*
X0072139Y0010526D01*
X0073169Y0010100D01*
X0074282Y0010100D01*
X0074977Y0010388D01*
X0075671Y0010100D01*
X0078886Y0010100D01*
X0079230Y0010242D01*
X0079574Y0010100D01*
X0080688Y0010100D01*
X0081532Y0010450D01*
X0082376Y0010100D01*
X0083490Y0010100D01*
X0084519Y0010526D01*
X0084662Y0010669D01*
X0086356Y0008975D01*
X0090311Y0008975D01*
X0091698Y0010362D01*
X0092329Y0010100D01*
X0094845Y0010100D01*
X0095539Y0010388D01*
X0096233Y0010100D01*
X0100149Y0010100D01*
X0100843Y0010388D01*
X0101537Y0010100D01*
X0104052Y0010100D01*
X0104747Y0010388D01*
X0105441Y0010100D01*
X0109357Y0010100D01*
X0110386Y0010526D01*
X0111174Y0011314D01*
X0111600Y0012343D01*
X0111600Y0013457D01*
X0111174Y0014486D01*
X0111008Y0014651D01*
X0111174Y0014817D01*
X0111600Y0015846D01*
X0111600Y0016960D01*
X0111174Y0017989D01*
X0110473Y0018690D01*
X0109708Y0019454D01*
X0109685Y0019477D02*
X0109685Y0019477D01*
X0110473Y0018690D02*
X0110473Y0018690D01*
X0111342Y0017584D02*
X0113127Y0017584D01*
X0112405Y0015985D02*
X0111600Y0015985D01*
X0111215Y0014387D02*
X0112405Y0014387D01*
X0112405Y0012788D02*
X0111600Y0012788D01*
X0111049Y0011190D02*
X0112593Y0011190D01*
X0113854Y0009591D02*
X0090927Y0009591D01*
X0085740Y0009591D02*
X0035733Y0009591D01*
X0035733Y0007993D02*
X0150933Y0007993D01*
X0150933Y0009591D02*
X0118659Y0009591D01*
X0100213Y0019182D02*
X0100072Y0019182D01*
X0100508Y0019477D02*
X0100508Y0019477D01*
X0096310Y0019182D02*
X0096169Y0019182D01*
X0091300Y0019477D02*
X0091300Y0019477D01*
X0091005Y0019182D02*
X0083413Y0019182D01*
X0083906Y0018690D02*
X0083906Y0018690D01*
X0085012Y0017584D02*
X0085414Y0017584D01*
X0090513Y0018690D02*
X0090513Y0018690D01*
X0079946Y0019477D02*
X0079946Y0019477D01*
X0069830Y0023978D02*
X0035733Y0023978D01*
X0035733Y0025576D02*
X0068232Y0025576D01*
X0065659Y0027175D02*
X0035733Y0027175D01*
X0035733Y0028773D02*
X0064632Y0028773D01*
X0064444Y0030372D02*
X0039205Y0030372D01*
X0041110Y0031970D02*
X0064940Y0031970D01*
X0066787Y0033569D02*
X0042495Y0033569D01*
X0043418Y0035167D02*
X0081141Y0035167D01*
X0082739Y0033569D02*
X0069880Y0033569D01*
X0071727Y0031970D02*
X0082440Y0031970D01*
X0081944Y0030372D02*
X0072487Y0030372D01*
X0072083Y0026250D02*
X0068333Y0030000D01*
X0072083Y0026250D02*
X0100833Y0026250D01*
X0115833Y0041250D01*
X0110833Y0041250D02*
X0099583Y0030000D01*
X0085833Y0030000D01*
X0087083Y0033750D02*
X0098333Y0033750D01*
X0105833Y0041250D01*
X0100833Y0041250D02*
X0097083Y0037500D01*
X0089583Y0037500D01*
X0082083Y0045000D01*
X0059583Y0045000D01*
X0055936Y0046357D02*
X0042538Y0046357D01*
X0042006Y0047278D02*
X0042006Y0047278D01*
X0041199Y0047955D02*
X0057039Y0047955D01*
X0055694Y0044758D02*
X0043461Y0044758D01*
X0043973Y0043872D02*
X0043973Y0043872D01*
X0044098Y0043160D02*
X0056136Y0043160D01*
X0056021Y0041561D02*
X0044380Y0041561D01*
X0044655Y0040000D02*
X0044655Y0040000D01*
X0044649Y0039963D02*
X0055694Y0039963D01*
X0056051Y0038364D02*
X0044367Y0038364D01*
X0044085Y0036766D02*
X0057318Y0036766D01*
X0061849Y0036766D02*
X0079542Y0036766D01*
X0080833Y0040000D02*
X0087083Y0033750D01*
X0080833Y0040000D02*
X0059583Y0040000D01*
X0043973Y0036128D02*
X0043973Y0036128D01*
X0035733Y0022379D02*
X0121286Y0022379D01*
X0119555Y0023978D02*
X0103086Y0023978D01*
X0104685Y0025576D02*
X0119433Y0025576D01*
X0119433Y0027175D02*
X0106284Y0027175D01*
X0107882Y0028773D02*
X0119433Y0028773D01*
X0119433Y0030372D02*
X0109481Y0030372D01*
X0111079Y0031970D02*
X0119741Y0031970D01*
X0126926Y0031970D02*
X0135508Y0031970D01*
X0135033Y0030372D02*
X0127233Y0030372D01*
X0128810Y0028773D02*
X0135033Y0028773D01*
X0135033Y0027175D02*
X0130026Y0027175D01*
X0130347Y0025576D02*
X0135033Y0025576D01*
X0135201Y0023978D02*
X0129985Y0023978D01*
X0126458Y0025625D02*
X0123333Y0025625D01*
X0123333Y0027750D01*
X0125833Y0025625D02*
X0126458Y0025625D01*
X0138333Y0025576D02*
X0138333Y0025576D01*
X0138333Y0023978D02*
X0138333Y0023978D01*
X0138333Y0027175D02*
X0138333Y0027175D01*
X0138333Y0028773D02*
X0138333Y0028773D01*
X0138333Y0030372D02*
X0138333Y0030372D01*
X0138333Y0031970D02*
X0138333Y0031970D01*
X0150933Y0020781D02*
X0035733Y0020781D01*
X0035733Y0019182D02*
X0035980Y0019182D01*
X0041144Y0019182D02*
X0043587Y0019182D01*
X0042668Y0017584D02*
X0042505Y0017584D01*
X0041637Y0018690D02*
X0041637Y0018690D01*
X0047349Y0019182D02*
X0065139Y0019182D01*
X0063778Y0017584D02*
X0061992Y0017584D01*
X0062714Y0015985D02*
X0063519Y0015985D01*
X0063614Y0014387D02*
X0062714Y0014387D01*
X0062714Y0012788D02*
X0063625Y0012788D01*
X0064770Y0011190D02*
X0062163Y0011190D01*
X0057664Y0011190D02*
X0057626Y0011190D01*
X0070670Y0011190D02*
X0071476Y0011190D01*
X0047842Y0018690D02*
X0047842Y0018690D01*
X0090048Y0041561D02*
X0096619Y0041561D01*
X0097415Y0043160D02*
X0088449Y0043160D01*
X0086850Y0044758D02*
X0099141Y0044758D01*
X0102526Y0044758D02*
X0104141Y0044758D01*
X0107526Y0044758D02*
X0109141Y0044758D01*
X0112526Y0044758D02*
X0114141Y0044758D01*
X0138333Y0046357D02*
X0138333Y0046357D01*
X0138333Y0047955D02*
X0138333Y0047955D01*
X0138333Y0049554D02*
X0138333Y0049554D01*
X0138333Y0049750D02*
X0138333Y0049750D01*
X0139072Y0019182D02*
X0143250Y0019182D01*
X0149815Y0019182D02*
X0150933Y0019182D01*
X0150307Y0018690D02*
X0150307Y0018690D01*
X0150733Y0017584D02*
X0150933Y0017584D01*
X0150933Y0015985D02*
X0150733Y0015985D01*
X0150733Y0014387D02*
X0150933Y0014387D01*
X0150933Y0012788D02*
X0150733Y0012788D01*
X0150933Y0011190D02*
X0150183Y0011190D01*
D16*
X0088333Y0013750D03*
M02*
