%
M48
M72
T01C0.01378
T02C0.03150
%
T01
X140833Y37500
X140833Y42500
X130833Y27500
X126458Y25625
X130833Y23750
X115833Y41250
X110833Y41250
X105833Y41250
X100833Y41250
X93333Y41250
X85833Y50000
X59583Y45000
X59583Y40000
X59583Y30000
X68333Y30000
X85833Y30000
X43333Y30000
X147932Y51106
X43333Y50000
T02
X88333Y13750
M30
