G75*
%MOIN*%
%OFA0B0*%
%FSLAX25Y25*%
%IPPOS*%
%LPD*%
%AMOC8*
5,1,8,0,0,1.08239X$1,22.5*
%
%ADD10C,0.00000*%
%ADD11C,0.00500*%
%ADD12C,0.00600*%
%ADD13C,0.00800*%
%ADD14C,0.00010*%
D10*
X0033333Y0005000D02*
X0033333Y0031250D01*
X0033546Y0031253D01*
X0033759Y0031260D01*
X0033972Y0031273D01*
X0034184Y0031291D01*
X0034396Y0031315D01*
X0034607Y0031343D01*
X0034817Y0031377D01*
X0035027Y0031416D01*
X0035236Y0031459D01*
X0035443Y0031508D01*
X0035649Y0031562D01*
X0035854Y0031621D01*
X0036057Y0031685D01*
X0036259Y0031754D01*
X0036459Y0031827D01*
X0036657Y0031906D01*
X0036853Y0031989D01*
X0037047Y0032077D01*
X0037239Y0032170D01*
X0037428Y0032268D01*
X0037615Y0032370D01*
X0037800Y0032476D01*
X0037982Y0032587D01*
X0038161Y0032703D01*
X0038337Y0032822D01*
X0038511Y0032946D01*
X0038681Y0033074D01*
X0038848Y0033207D01*
X0039012Y0033343D01*
X0039172Y0033483D01*
X0039329Y0033627D01*
X0039482Y0033775D01*
X0039632Y0033927D01*
X0039778Y0034082D01*
X0039920Y0034241D01*
X0040059Y0034403D01*
X0040193Y0034568D01*
X0040323Y0034737D01*
X0040449Y0034909D01*
X0040571Y0035084D01*
X0040689Y0035261D01*
X0040802Y0035442D01*
X0040911Y0035625D01*
X0041015Y0035811D01*
X0041115Y0035999D01*
X0041210Y0036190D01*
X0041300Y0036383D01*
X0041386Y0036578D01*
X0041467Y0036775D01*
X0041543Y0036974D01*
X0041614Y0037175D01*
X0041681Y0037377D01*
X0041742Y0037581D01*
X0041798Y0037787D01*
X0041850Y0037994D01*
X0041896Y0038202D01*
X0041937Y0038411D01*
X0041974Y0038621D01*
X0042005Y0038831D01*
X0042031Y0039043D01*
X0042051Y0039255D01*
X0042067Y0039468D01*
X0042077Y0039680D01*
X0042082Y0039893D01*
X0042082Y0040107D01*
X0042077Y0040320D01*
X0042067Y0040532D01*
X0042051Y0040745D01*
X0042031Y0040957D01*
X0042005Y0041169D01*
X0041974Y0041379D01*
X0041937Y0041589D01*
X0041896Y0041798D01*
X0041850Y0042006D01*
X0041798Y0042213D01*
X0041742Y0042419D01*
X0041681Y0042623D01*
X0041614Y0042825D01*
X0041543Y0043026D01*
X0041467Y0043225D01*
X0041386Y0043422D01*
X0041300Y0043617D01*
X0041210Y0043810D01*
X0041115Y0044001D01*
X0041015Y0044189D01*
X0040911Y0044375D01*
X0040802Y0044558D01*
X0040689Y0044739D01*
X0040571Y0044916D01*
X0040449Y0045091D01*
X0040323Y0045263D01*
X0040193Y0045432D01*
X0040059Y0045597D01*
X0039920Y0045759D01*
X0039778Y0045918D01*
X0039632Y0046073D01*
X0039482Y0046225D01*
X0039329Y0046373D01*
X0039172Y0046517D01*
X0039012Y0046657D01*
X0038848Y0046793D01*
X0038681Y0046926D01*
X0038511Y0047054D01*
X0038337Y0047178D01*
X0038161Y0047297D01*
X0037982Y0047413D01*
X0037800Y0047524D01*
X0037615Y0047630D01*
X0037428Y0047732D01*
X0037239Y0047830D01*
X0037047Y0047923D01*
X0036853Y0048011D01*
X0036657Y0048094D01*
X0036459Y0048173D01*
X0036259Y0048246D01*
X0036057Y0048315D01*
X0035854Y0048379D01*
X0035649Y0048438D01*
X0035443Y0048492D01*
X0035236Y0048541D01*
X0035027Y0048584D01*
X0034817Y0048623D01*
X0034607Y0048657D01*
X0034396Y0048685D01*
X0034184Y0048709D01*
X0033972Y0048727D01*
X0033759Y0048740D01*
X0033546Y0048747D01*
X0033333Y0048750D01*
X0033333Y0054961D01*
X0153333Y0055000D01*
X0153333Y0048750D01*
X0153119Y0048754D01*
X0152905Y0048753D01*
X0152691Y0048746D01*
X0152477Y0048735D01*
X0152264Y0048718D01*
X0152051Y0048696D01*
X0151839Y0048668D01*
X0151627Y0048636D01*
X0151416Y0048598D01*
X0151207Y0048556D01*
X0150998Y0048508D01*
X0150790Y0048455D01*
X0150584Y0048397D01*
X0150380Y0048334D01*
X0150177Y0048266D01*
X0149975Y0048193D01*
X0149776Y0048115D01*
X0149578Y0048032D01*
X0149383Y0047944D01*
X0149190Y0047852D01*
X0148999Y0047755D01*
X0148811Y0047653D01*
X0148625Y0047547D01*
X0148441Y0047436D01*
X0148261Y0047321D01*
X0148083Y0047202D01*
X0147909Y0047078D01*
X0147737Y0046950D01*
X0147569Y0046818D01*
X0147404Y0046681D01*
X0147242Y0046541D01*
X0147084Y0046397D01*
X0146929Y0046249D01*
X0146778Y0046097D01*
X0146631Y0045941D01*
X0146488Y0045782D01*
X0146348Y0045620D01*
X0146213Y0045454D01*
X0146081Y0045285D01*
X0145954Y0045113D01*
X0145831Y0044937D01*
X0145713Y0044759D01*
X0145598Y0044578D01*
X0145489Y0044394D01*
X0145384Y0044208D01*
X0145283Y0044019D01*
X0145187Y0043827D01*
X0145096Y0043634D01*
X0145009Y0043438D01*
X0144928Y0043240D01*
X0144851Y0043040D01*
X0144779Y0042838D01*
X0144712Y0042635D01*
X0144650Y0042430D01*
X0144593Y0042224D01*
X0144541Y0042016D01*
X0144495Y0041807D01*
X0144453Y0041597D01*
X0144416Y0041386D01*
X0144385Y0041174D01*
X0144359Y0040962D01*
X0144338Y0040748D01*
X0144322Y0040535D01*
X0144312Y0040321D01*
X0144307Y0040107D01*
X0144307Y0039893D01*
X0144312Y0039679D01*
X0144322Y0039465D01*
X0144338Y0039252D01*
X0144359Y0039038D01*
X0144385Y0038826D01*
X0144416Y0038614D01*
X0144453Y0038403D01*
X0144495Y0038193D01*
X0144541Y0037984D01*
X0144593Y0037776D01*
X0144650Y0037570D01*
X0144712Y0037365D01*
X0144779Y0037162D01*
X0144851Y0036960D01*
X0144928Y0036760D01*
X0145009Y0036562D01*
X0145096Y0036366D01*
X0145187Y0036173D01*
X0145283Y0035981D01*
X0145384Y0035792D01*
X0145489Y0035606D01*
X0145598Y0035422D01*
X0145713Y0035241D01*
X0145831Y0035063D01*
X0145954Y0034887D01*
X0146081Y0034715D01*
X0146213Y0034546D01*
X0146348Y0034380D01*
X0146488Y0034218D01*
X0146631Y0034059D01*
X0146778Y0033903D01*
X0146929Y0033751D01*
X0147084Y0033603D01*
X0147242Y0033459D01*
X0147404Y0033319D01*
X0147569Y0033182D01*
X0147737Y0033050D01*
X0147909Y0032922D01*
X0148083Y0032798D01*
X0148261Y0032679D01*
X0148441Y0032564D01*
X0148625Y0032453D01*
X0148811Y0032347D01*
X0148999Y0032245D01*
X0149190Y0032148D01*
X0149383Y0032056D01*
X0149578Y0031968D01*
X0149776Y0031885D01*
X0149975Y0031807D01*
X0150177Y0031734D01*
X0150380Y0031666D01*
X0150584Y0031603D01*
X0150790Y0031545D01*
X0150998Y0031492D01*
X0151207Y0031444D01*
X0151416Y0031402D01*
X0151627Y0031364D01*
X0151839Y0031332D01*
X0152051Y0031304D01*
X0152264Y0031282D01*
X0152477Y0031265D01*
X0152691Y0031254D01*
X0152905Y0031247D01*
X0153119Y0031246D01*
X0153333Y0031250D01*
X0153333Y0005000D01*
X0033333Y0005000D01*
D11*
X0037333Y0022750D02*
X0039135Y0022750D01*
X0038234Y0022750D02*
X0038234Y0025452D01*
X0037333Y0024552D01*
X0040280Y0025002D02*
X0040730Y0025452D01*
X0041631Y0025452D01*
X0042081Y0025002D01*
X0042081Y0024552D01*
X0040280Y0022750D01*
X0042081Y0022750D01*
X0055462Y0049000D02*
X0056363Y0049000D01*
X0056813Y0049450D01*
X0056813Y0051702D01*
X0057958Y0051252D02*
X0058409Y0051702D01*
X0059309Y0051702D01*
X0059760Y0051252D01*
X0059760Y0050802D01*
X0059309Y0050351D01*
X0059760Y0049901D01*
X0059760Y0049450D01*
X0059309Y0049000D01*
X0058409Y0049000D01*
X0057958Y0049450D01*
X0058859Y0050351D02*
X0059309Y0050351D01*
X0055462Y0049000D02*
X0055012Y0049450D01*
X0055012Y0051702D01*
X0123931Y0045851D02*
X0123931Y0044950D01*
X0124381Y0044500D01*
X0123931Y0043355D02*
X0126183Y0043355D01*
X0126633Y0042905D01*
X0126633Y0042004D01*
X0126183Y0041553D01*
X0123931Y0041553D01*
X0127625Y0040059D02*
X0127625Y0034941D01*
X0139042Y0034941D01*
X0139042Y0040059D01*
X0127625Y0040059D01*
X0126633Y0044500D02*
X0124832Y0046302D01*
X0124381Y0046302D01*
X0123931Y0045851D01*
X0126633Y0046302D02*
X0126633Y0044500D01*
X0140381Y0044897D02*
X0140831Y0044447D01*
X0140381Y0044897D02*
X0140381Y0045798D01*
X0140831Y0046248D01*
X0141282Y0046248D01*
X0143083Y0044447D01*
X0143083Y0046248D01*
X0142633Y0043302D02*
X0143083Y0042851D01*
X0143083Y0041950D01*
X0142633Y0041500D01*
X0140831Y0041500D01*
X0140381Y0041950D01*
X0140381Y0042851D01*
X0140831Y0043302D01*
X0140291Y0032252D02*
X0139391Y0032252D01*
X0138940Y0031802D01*
X0138940Y0030000D01*
X0139391Y0029550D01*
X0140291Y0029550D01*
X0140742Y0030000D01*
X0141887Y0029550D02*
X0143688Y0029550D01*
X0142788Y0029550D02*
X0142788Y0032252D01*
X0141887Y0031352D01*
X0140742Y0031802D02*
X0140291Y0032252D01*
X0130563Y0030175D02*
X0128762Y0030175D01*
X0129663Y0030175D02*
X0129663Y0032877D01*
X0128762Y0031977D01*
X0127617Y0032877D02*
X0127617Y0030625D01*
X0127166Y0030175D01*
X0126266Y0030175D01*
X0125815Y0030625D01*
X0125815Y0032877D01*
X0143583Y0024552D02*
X0144484Y0025452D01*
X0144484Y0022750D01*
X0143583Y0022750D02*
X0145385Y0022750D01*
D12*
X0123033Y0033650D02*
X0123033Y0042750D01*
X0124480Y0048189D02*
X0124766Y0048134D01*
X0125057Y0048155D01*
X0125333Y0048250D01*
X0125575Y0048413D01*
X0125766Y0048634D01*
X0125894Y0048896D01*
X0125949Y0049183D01*
X0125929Y0049474D01*
X0125833Y0049750D01*
X0125670Y0049992D01*
X0125449Y0050183D01*
X0125187Y0050311D01*
X0124900Y0050366D01*
X0124609Y0050345D01*
X0124333Y0050250D01*
X0124092Y0050087D01*
X0123900Y0049866D01*
X0123773Y0049604D01*
X0123717Y0049317D01*
X0123738Y0049026D01*
X0123833Y0048750D01*
X0123997Y0048508D01*
X0124217Y0048317D01*
X0124480Y0048189D01*
X0124030Y0048479D02*
X0125632Y0048479D01*
X0125929Y0049078D02*
X0123734Y0049078D01*
X0123808Y0049676D02*
X0125859Y0049676D01*
X0125260Y0050275D02*
X0124406Y0050275D01*
X0088633Y0042750D02*
X0088633Y0033650D01*
D13*
X0074582Y0028201D02*
X0054485Y0028201D01*
X0054485Y0046799D02*
X0074582Y0046799D01*
D14*
X0053931Y0049133D02*
X0051486Y0049133D01*
X0051487Y0049125D02*
X0053930Y0049125D01*
X0053929Y0049116D02*
X0051487Y0049116D01*
X0051488Y0049107D02*
X0053928Y0049107D01*
X0053927Y0049099D02*
X0051489Y0049099D01*
X0051490Y0049097D02*
X0051582Y0048833D01*
X0051731Y0048596D01*
X0051929Y0048398D01*
X0052166Y0048249D01*
X0052430Y0048156D01*
X0052708Y0048125D01*
X0052986Y0048156D01*
X0053251Y0048249D01*
X0053488Y0048398D01*
X0053686Y0048596D01*
X0053835Y0048833D01*
X0053927Y0049097D01*
X0053958Y0049375D01*
X0053927Y0049653D01*
X0053835Y0049917D01*
X0053686Y0050154D01*
X0053488Y0050352D01*
X0053251Y0050501D01*
X0052986Y0050594D01*
X0052708Y0050625D01*
X0052430Y0050594D01*
X0052166Y0050501D01*
X0051929Y0050352D01*
X0051731Y0050154D01*
X0051582Y0049917D01*
X0051490Y0049653D01*
X0051458Y0049375D01*
X0051490Y0049097D01*
X0051492Y0049090D02*
X0053925Y0049090D01*
X0053922Y0049082D02*
X0051495Y0049082D01*
X0051498Y0049073D02*
X0053919Y0049073D01*
X0053916Y0049065D02*
X0051501Y0049065D01*
X0051504Y0049056D02*
X0053913Y0049056D01*
X0053910Y0049048D02*
X0051507Y0049048D01*
X0051510Y0049039D02*
X0053907Y0049039D01*
X0053904Y0049031D02*
X0051513Y0049031D01*
X0051516Y0049022D02*
X0053901Y0049022D01*
X0053898Y0049014D02*
X0051519Y0049014D01*
X0051522Y0049005D02*
X0053895Y0049005D01*
X0053892Y0048997D02*
X0051525Y0048997D01*
X0051528Y0048988D02*
X0053889Y0048988D01*
X0053886Y0048980D02*
X0051531Y0048980D01*
X0051534Y0048971D02*
X0053883Y0048971D01*
X0053880Y0048963D02*
X0051537Y0048963D01*
X0051540Y0048954D02*
X0053877Y0048954D01*
X0053874Y0048946D02*
X0051543Y0048946D01*
X0051546Y0048937D02*
X0053871Y0048937D01*
X0053868Y0048929D02*
X0051549Y0048929D01*
X0051551Y0048920D02*
X0053865Y0048920D01*
X0053862Y0048912D02*
X0051554Y0048912D01*
X0051557Y0048903D02*
X0053859Y0048903D01*
X0053856Y0048895D02*
X0051560Y0048895D01*
X0051563Y0048886D02*
X0053853Y0048886D01*
X0053850Y0048878D02*
X0051566Y0048878D01*
X0051569Y0048869D02*
X0053847Y0048869D01*
X0053844Y0048861D02*
X0051572Y0048861D01*
X0051575Y0048852D02*
X0053841Y0048852D01*
X0053838Y0048844D02*
X0051578Y0048844D01*
X0051581Y0048835D02*
X0053835Y0048835D01*
X0053831Y0048827D02*
X0051586Y0048827D01*
X0051591Y0048818D02*
X0053825Y0048818D01*
X0053820Y0048809D02*
X0051597Y0048809D01*
X0051602Y0048801D02*
X0053815Y0048801D01*
X0053809Y0048792D02*
X0051607Y0048792D01*
X0051613Y0048784D02*
X0053804Y0048784D01*
X0053799Y0048775D02*
X0051618Y0048775D01*
X0051623Y0048767D02*
X0053793Y0048767D01*
X0053788Y0048758D02*
X0051629Y0048758D01*
X0051634Y0048750D02*
X0053783Y0048750D01*
X0053777Y0048741D02*
X0051639Y0048741D01*
X0051645Y0048733D02*
X0053772Y0048733D01*
X0053766Y0048724D02*
X0051650Y0048724D01*
X0051655Y0048716D02*
X0053761Y0048716D01*
X0053756Y0048707D02*
X0051661Y0048707D01*
X0051666Y0048699D02*
X0053750Y0048699D01*
X0053745Y0048690D02*
X0051672Y0048690D01*
X0051677Y0048682D02*
X0053740Y0048682D01*
X0053734Y0048673D02*
X0051682Y0048673D01*
X0051688Y0048665D02*
X0053729Y0048665D01*
X0053724Y0048656D02*
X0051693Y0048656D01*
X0051698Y0048648D02*
X0053718Y0048648D01*
X0053713Y0048639D02*
X0051704Y0048639D01*
X0051709Y0048631D02*
X0053708Y0048631D01*
X0053702Y0048622D02*
X0051714Y0048622D01*
X0051720Y0048614D02*
X0053697Y0048614D01*
X0053692Y0048605D02*
X0051725Y0048605D01*
X0051730Y0048597D02*
X0053686Y0048597D01*
X0053678Y0048588D02*
X0051739Y0048588D01*
X0051747Y0048580D02*
X0053670Y0048580D01*
X0053661Y0048571D02*
X0051756Y0048571D01*
X0051764Y0048563D02*
X0053653Y0048563D01*
X0053644Y0048554D02*
X0051773Y0048554D01*
X0051781Y0048546D02*
X0053636Y0048546D01*
X0053627Y0048537D02*
X0051790Y0048537D01*
X0051798Y0048529D02*
X0053619Y0048529D01*
X0053610Y0048520D02*
X0051807Y0048520D01*
X0051815Y0048512D02*
X0053602Y0048512D01*
X0053593Y0048503D02*
X0051824Y0048503D01*
X0051832Y0048494D02*
X0053584Y0048494D01*
X0053576Y0048486D02*
X0051841Y0048486D01*
X0051849Y0048477D02*
X0053567Y0048477D01*
X0053559Y0048469D02*
X0051858Y0048469D01*
X0051866Y0048460D02*
X0053550Y0048460D01*
X0053542Y0048452D02*
X0051875Y0048452D01*
X0051883Y0048443D02*
X0053533Y0048443D01*
X0053525Y0048435D02*
X0051892Y0048435D01*
X0051900Y0048426D02*
X0053516Y0048426D01*
X0053508Y0048418D02*
X0051909Y0048418D01*
X0051917Y0048409D02*
X0053499Y0048409D01*
X0053491Y0048401D02*
X0051926Y0048401D01*
X0051938Y0048392D02*
X0053479Y0048392D01*
X0053466Y0048384D02*
X0051951Y0048384D01*
X0051965Y0048375D02*
X0053452Y0048375D01*
X0053438Y0048367D02*
X0051978Y0048367D01*
X0051992Y0048358D02*
X0053425Y0048358D01*
X0053411Y0048350D02*
X0052005Y0048350D01*
X0052019Y0048341D02*
X0053398Y0048341D01*
X0053384Y0048333D02*
X0052032Y0048333D01*
X0052046Y0048324D02*
X0053371Y0048324D01*
X0053357Y0048316D02*
X0052059Y0048316D01*
X0052073Y0048307D02*
X0053344Y0048307D01*
X0053330Y0048299D02*
X0052087Y0048299D01*
X0052100Y0048290D02*
X0053317Y0048290D01*
X0053303Y0048282D02*
X0052114Y0048282D01*
X0052127Y0048273D02*
X0053289Y0048273D01*
X0053276Y0048265D02*
X0052141Y0048265D01*
X0052154Y0048256D02*
X0053262Y0048256D01*
X0053247Y0048248D02*
X0052169Y0048248D01*
X0052194Y0048239D02*
X0053223Y0048239D01*
X0053199Y0048231D02*
X0052218Y0048231D01*
X0052242Y0048222D02*
X0053174Y0048222D01*
X0053150Y0048214D02*
X0052267Y0048214D01*
X0052291Y0048205D02*
X0053126Y0048205D01*
X0053101Y0048197D02*
X0052315Y0048197D01*
X0052340Y0048188D02*
X0053077Y0048188D01*
X0053053Y0048179D02*
X0052364Y0048179D01*
X0052388Y0048171D02*
X0053028Y0048171D01*
X0053004Y0048162D02*
X0052413Y0048162D01*
X0052451Y0048154D02*
X0052965Y0048154D01*
X0052890Y0048145D02*
X0052527Y0048145D01*
X0052603Y0048137D02*
X0052814Y0048137D01*
X0052738Y0048128D02*
X0052678Y0048128D01*
X0051485Y0049142D02*
X0053932Y0049142D01*
X0053933Y0049150D02*
X0051484Y0049150D01*
X0051483Y0049159D02*
X0053934Y0049159D01*
X0053935Y0049167D02*
X0051482Y0049167D01*
X0051481Y0049176D02*
X0053936Y0049176D01*
X0053937Y0049184D02*
X0051480Y0049184D01*
X0051479Y0049193D02*
X0053938Y0049193D01*
X0053939Y0049201D02*
X0051478Y0049201D01*
X0051477Y0049210D02*
X0053940Y0049210D01*
X0053941Y0049218D02*
X0051476Y0049218D01*
X0051475Y0049227D02*
X0053942Y0049227D01*
X0053943Y0049235D02*
X0051474Y0049235D01*
X0051473Y0049244D02*
X0053944Y0049244D01*
X0053944Y0049252D02*
X0051472Y0049252D01*
X0051471Y0049261D02*
X0053945Y0049261D01*
X0053946Y0049269D02*
X0051470Y0049269D01*
X0051469Y0049278D02*
X0053947Y0049278D01*
X0053948Y0049286D02*
X0051468Y0049286D01*
X0051467Y0049295D02*
X0053949Y0049295D01*
X0053950Y0049303D02*
X0051466Y0049303D01*
X0051465Y0049312D02*
X0053951Y0049312D01*
X0053952Y0049320D02*
X0051464Y0049320D01*
X0051464Y0049329D02*
X0053953Y0049329D01*
X0053954Y0049337D02*
X0051463Y0049337D01*
X0051462Y0049346D02*
X0053955Y0049346D01*
X0053956Y0049354D02*
X0051461Y0049354D01*
X0051460Y0049363D02*
X0053957Y0049363D01*
X0053958Y0049371D02*
X0051459Y0049371D01*
X0051459Y0049380D02*
X0053958Y0049380D01*
X0053957Y0049388D02*
X0051460Y0049388D01*
X0051461Y0049397D02*
X0053956Y0049397D01*
X0053955Y0049405D02*
X0051462Y0049405D01*
X0051463Y0049414D02*
X0053954Y0049414D01*
X0053953Y0049422D02*
X0051464Y0049422D01*
X0051465Y0049431D02*
X0053952Y0049431D01*
X0053951Y0049440D02*
X0051466Y0049440D01*
X0051467Y0049448D02*
X0053950Y0049448D01*
X0053949Y0049457D02*
X0051468Y0049457D01*
X0051468Y0049465D02*
X0053948Y0049465D01*
X0053947Y0049474D02*
X0051469Y0049474D01*
X0051470Y0049482D02*
X0053946Y0049482D01*
X0053945Y0049491D02*
X0051471Y0049491D01*
X0051472Y0049499D02*
X0053944Y0049499D01*
X0053943Y0049508D02*
X0051473Y0049508D01*
X0051474Y0049516D02*
X0053942Y0049516D01*
X0053941Y0049525D02*
X0051475Y0049525D01*
X0051476Y0049533D02*
X0053941Y0049533D01*
X0053940Y0049542D02*
X0051477Y0049542D01*
X0051478Y0049550D02*
X0053939Y0049550D01*
X0053938Y0049559D02*
X0051479Y0049559D01*
X0051480Y0049567D02*
X0053937Y0049567D01*
X0053936Y0049576D02*
X0051481Y0049576D01*
X0051482Y0049584D02*
X0053935Y0049584D01*
X0053934Y0049593D02*
X0051483Y0049593D01*
X0051484Y0049601D02*
X0053933Y0049601D01*
X0053932Y0049610D02*
X0051485Y0049610D01*
X0051486Y0049618D02*
X0053931Y0049618D01*
X0053930Y0049627D02*
X0051487Y0049627D01*
X0051488Y0049635D02*
X0053929Y0049635D01*
X0053928Y0049644D02*
X0051489Y0049644D01*
X0051490Y0049652D02*
X0053927Y0049652D01*
X0053924Y0049661D02*
X0051492Y0049661D01*
X0051495Y0049669D02*
X0053921Y0049669D01*
X0053918Y0049678D02*
X0051498Y0049678D01*
X0051501Y0049686D02*
X0053915Y0049686D01*
X0053912Y0049695D02*
X0051504Y0049695D01*
X0051507Y0049703D02*
X0053909Y0049703D01*
X0053906Y0049712D02*
X0051510Y0049712D01*
X0051513Y0049720D02*
X0053903Y0049720D01*
X0053900Y0049729D02*
X0051516Y0049729D01*
X0051519Y0049737D02*
X0053897Y0049737D01*
X0053895Y0049746D02*
X0051522Y0049746D01*
X0051525Y0049755D02*
X0053892Y0049755D01*
X0053889Y0049763D02*
X0051528Y0049763D01*
X0051531Y0049772D02*
X0053886Y0049772D01*
X0053883Y0049780D02*
X0051534Y0049780D01*
X0051537Y0049789D02*
X0053880Y0049789D01*
X0053877Y0049797D02*
X0051540Y0049797D01*
X0051543Y0049806D02*
X0053874Y0049806D01*
X0053871Y0049814D02*
X0051546Y0049814D01*
X0051549Y0049823D02*
X0053868Y0049823D01*
X0053865Y0049831D02*
X0051552Y0049831D01*
X0051555Y0049840D02*
X0053862Y0049840D01*
X0053859Y0049848D02*
X0051558Y0049848D01*
X0051561Y0049857D02*
X0053856Y0049857D01*
X0053853Y0049865D02*
X0051564Y0049865D01*
X0051567Y0049874D02*
X0053850Y0049874D01*
X0053847Y0049882D02*
X0051570Y0049882D01*
X0051573Y0049891D02*
X0053844Y0049891D01*
X0053841Y0049899D02*
X0051576Y0049899D01*
X0051579Y0049908D02*
X0053838Y0049908D01*
X0053835Y0049916D02*
X0051582Y0049916D01*
X0051587Y0049925D02*
X0053830Y0049925D01*
X0053825Y0049933D02*
X0051592Y0049933D01*
X0051598Y0049942D02*
X0053819Y0049942D01*
X0053814Y0049950D02*
X0051603Y0049950D01*
X0051608Y0049959D02*
X0053808Y0049959D01*
X0053803Y0049967D02*
X0051614Y0049967D01*
X0051619Y0049976D02*
X0053798Y0049976D01*
X0053792Y0049984D02*
X0051624Y0049984D01*
X0051630Y0049993D02*
X0053787Y0049993D01*
X0053782Y0050001D02*
X0051635Y0050001D01*
X0051640Y0050010D02*
X0053776Y0050010D01*
X0053771Y0050018D02*
X0051646Y0050018D01*
X0051651Y0050027D02*
X0053766Y0050027D01*
X0053760Y0050035D02*
X0051656Y0050035D01*
X0051662Y0050044D02*
X0053755Y0050044D01*
X0053750Y0050053D02*
X0051667Y0050053D01*
X0051672Y0050061D02*
X0053744Y0050061D01*
X0053739Y0050070D02*
X0051678Y0050070D01*
X0051683Y0050078D02*
X0053734Y0050078D01*
X0053728Y0050087D02*
X0051688Y0050087D01*
X0051694Y0050095D02*
X0053723Y0050095D01*
X0053718Y0050104D02*
X0051699Y0050104D01*
X0051704Y0050112D02*
X0053712Y0050112D01*
X0053707Y0050121D02*
X0051710Y0050121D01*
X0051715Y0050129D02*
X0053701Y0050129D01*
X0053696Y0050138D02*
X0051721Y0050138D01*
X0051726Y0050146D02*
X0053691Y0050146D01*
X0053685Y0050155D02*
X0051731Y0050155D01*
X0051740Y0050163D02*
X0053677Y0050163D01*
X0053668Y0050172D02*
X0051748Y0050172D01*
X0051757Y0050180D02*
X0053660Y0050180D01*
X0053651Y0050189D02*
X0051765Y0050189D01*
X0051774Y0050197D02*
X0053643Y0050197D01*
X0053634Y0050206D02*
X0051782Y0050206D01*
X0051791Y0050214D02*
X0053626Y0050214D01*
X0053617Y0050223D02*
X0051799Y0050223D01*
X0051808Y0050231D02*
X0053609Y0050231D01*
X0053600Y0050240D02*
X0051816Y0050240D01*
X0051825Y0050248D02*
X0053592Y0050248D01*
X0053583Y0050257D02*
X0051834Y0050257D01*
X0051842Y0050265D02*
X0053575Y0050265D01*
X0053566Y0050274D02*
X0051851Y0050274D01*
X0051859Y0050282D02*
X0053558Y0050282D01*
X0053549Y0050291D02*
X0051868Y0050291D01*
X0051876Y0050299D02*
X0053541Y0050299D01*
X0053532Y0050308D02*
X0051885Y0050308D01*
X0051893Y0050316D02*
X0053524Y0050316D01*
X0053515Y0050325D02*
X0051902Y0050325D01*
X0051910Y0050333D02*
X0053507Y0050333D01*
X0053498Y0050342D02*
X0051919Y0050342D01*
X0051927Y0050350D02*
X0053489Y0050350D01*
X0053477Y0050359D02*
X0051940Y0050359D01*
X0051953Y0050368D02*
X0053463Y0050368D01*
X0053450Y0050376D02*
X0051967Y0050376D01*
X0051980Y0050385D02*
X0053436Y0050385D01*
X0053423Y0050393D02*
X0051994Y0050393D01*
X0052007Y0050402D02*
X0053409Y0050402D01*
X0053396Y0050410D02*
X0052021Y0050410D01*
X0052035Y0050419D02*
X0053382Y0050419D01*
X0053369Y0050427D02*
X0052048Y0050427D01*
X0052062Y0050436D02*
X0053355Y0050436D01*
X0053342Y0050444D02*
X0052075Y0050444D01*
X0052089Y0050453D02*
X0053328Y0050453D01*
X0053314Y0050461D02*
X0052102Y0050461D01*
X0052116Y0050470D02*
X0053301Y0050470D01*
X0053287Y0050478D02*
X0052129Y0050478D01*
X0052143Y0050487D02*
X0053274Y0050487D01*
X0053260Y0050495D02*
X0052156Y0050495D01*
X0052173Y0050504D02*
X0053243Y0050504D01*
X0053219Y0050512D02*
X0052198Y0050512D01*
X0052222Y0050521D02*
X0053195Y0050521D01*
X0053170Y0050529D02*
X0052246Y0050529D01*
X0052271Y0050538D02*
X0053146Y0050538D01*
X0053122Y0050546D02*
X0052295Y0050546D01*
X0052319Y0050555D02*
X0053097Y0050555D01*
X0053073Y0050563D02*
X0052344Y0050563D01*
X0052368Y0050572D02*
X0053049Y0050572D01*
X0053024Y0050580D02*
X0052392Y0050580D01*
X0052417Y0050589D02*
X0053000Y0050589D01*
X0052953Y0050597D02*
X0052463Y0050597D01*
X0052539Y0050606D02*
X0052878Y0050606D01*
X0052802Y0050614D02*
X0052614Y0050614D01*
X0052690Y0050623D02*
X0052727Y0050623D01*
M02*
