G75*
%MOIN*%
%OFA0B0*%
%FSLAX25Y25*%
%IPPOS*%
%LPD*%
%AMOC8*
5,1,8,0,0,1.08239X$1,22.5*
%
%ADD10C,0.00000*%
%ADD11R,0.00880X0.00080*%
%ADD12R,0.01520X0.00080*%
%ADD13R,0.01920X0.00080*%
%ADD14R,0.02240X0.00080*%
%ADD15R,0.02480X0.00080*%
%ADD16R,0.02800X0.00080*%
%ADD17R,0.00800X0.00080*%
%ADD18R,0.03040X0.00080*%
%ADD19R,0.01440X0.00080*%
%ADD20R,0.03200X0.00080*%
%ADD21R,0.01840X0.00080*%
%ADD22R,0.03440X0.00080*%
%ADD23R,0.02080X0.00080*%
%ADD24R,0.03600X0.00080*%
%ADD25R,0.03760X0.00080*%
%ADD26R,0.02720X0.00080*%
%ADD27R,0.03920X0.00080*%
%ADD28R,0.02960X0.00080*%
%ADD29R,0.04080X0.00080*%
%ADD30R,0.03120X0.00080*%
%ADD31R,0.04240X0.00080*%
%ADD32R,0.03440X0.00080*%
%ADD33R,0.04400X0.00080*%
%ADD34R,0.04480X0.00080*%
%ADD35R,0.04640X0.00080*%
%ADD36R,0.04000X0.00080*%
%ADD37R,0.04800X0.00080*%
%ADD38R,0.04160X0.00080*%
%ADD39R,0.04880X0.00080*%
%ADD40R,0.04320X0.00080*%
%ADD41R,0.05040X0.00080*%
%ADD42R,0.05200X0.00080*%
%ADD43R,0.04560X0.00080*%
%ADD44R,0.05280X0.00080*%
%ADD45R,0.04720X0.00080*%
%ADD46R,0.05360X0.00080*%
%ADD47R,0.05520X0.00080*%
%ADD48R,0.05600X0.00080*%
%ADD49R,0.05120X0.00080*%
%ADD50R,0.05760X0.00080*%
%ADD51R,0.01040X0.00080*%
%ADD52R,0.05920X0.00080*%
%ADD53R,0.01600X0.00080*%
%ADD54R,0.05440X0.00080*%
%ADD55R,0.06000X0.00080*%
%ADD56R,0.00320X0.00080*%
%ADD57R,0.02000X0.00080*%
%ADD58R,0.06240X0.00080*%
%ADD59R,0.02320X0.00080*%
%ADD60R,0.05840X0.00080*%
%ADD61R,0.06560X0.00080*%
%ADD62R,0.02640X0.00080*%
%ADD63R,0.13120X0.00080*%
%ADD64R,0.02720X0.00080*%
%ADD65R,0.02880X0.00080*%
%ADD66R,0.13280X0.00080*%
%ADD67R,0.03120X0.00080*%
%ADD68R,0.13360X0.00080*%
%ADD69R,0.03280X0.00080*%
%ADD70R,0.03360X0.00080*%
%ADD71R,0.03520X0.00080*%
%ADD72R,0.13520X0.00080*%
%ADD73R,0.03680X0.00080*%
%ADD74R,0.13680X0.00080*%
%ADD75R,0.03840X0.00080*%
%ADD76R,0.17920X0.00080*%
%ADD77R,0.18000X0.00080*%
%ADD78R,0.18080X0.00080*%
%ADD79R,0.18240X0.00080*%
%ADD80R,0.18400X0.00080*%
%ADD81R,0.04720X0.00080*%
%ADD82R,0.18560X0.00080*%
%ADD83R,0.23520X0.00080*%
%ADD84R,0.23680X0.00080*%
%ADD85R,0.23760X0.00080*%
%ADD86R,0.23840X0.00080*%
%ADD87R,0.23920X0.00080*%
%ADD88R,0.24080X0.00080*%
%ADD89R,0.24240X0.00080*%
%ADD90R,0.24320X0.00080*%
%ADD91R,0.24560X0.00080*%
%ADD92R,0.24720X0.00080*%
%ADD93R,0.24960X0.00080*%
%ADD94R,0.25040X0.00080*%
%ADD95R,0.25200X0.00080*%
%ADD96R,0.25360X0.00080*%
%ADD97R,0.25520X0.00080*%
%ADD98R,0.25600X0.00080*%
%ADD99R,0.25680X0.00080*%
%ADD100R,0.25840X0.00080*%
%ADD101R,0.26000X0.00080*%
%ADD102R,0.26160X0.00080*%
%ADD103R,0.26240X0.00080*%
%ADD104R,0.26320X0.00080*%
%ADD105R,0.26400X0.00080*%
%ADD106R,0.26480X0.00080*%
%ADD107R,0.26560X0.00080*%
%ADD108R,0.26640X0.00080*%
%ADD109R,0.26720X0.00080*%
%ADD110R,0.26880X0.00080*%
%ADD111R,0.26960X0.00080*%
%ADD112R,0.27040X0.00080*%
%ADD113R,0.27120X0.00080*%
%ADD114R,0.27200X0.00080*%
%ADD115R,0.27360X0.00080*%
%ADD116R,0.27440X0.00080*%
%ADD117R,0.27600X0.00080*%
%ADD118R,0.27680X0.00080*%
%ADD119R,0.27760X0.00080*%
%ADD120R,0.27840X0.00080*%
%ADD121R,0.27840X0.00080*%
%ADD122R,0.08880X0.00080*%
%ADD123R,0.10080X0.00080*%
%ADD124R,0.08240X0.00080*%
%ADD125R,0.07920X0.00080*%
%ADD126R,0.00240X0.00080*%
%ADD127R,0.09680X0.00080*%
%ADD128R,0.00160X0.00080*%
%ADD129R,0.07760X0.00080*%
%ADD130R,0.09200X0.00080*%
%ADD131R,0.07600X0.00080*%
%ADD132R,0.07440X0.00080*%
%ADD133R,0.08800X0.00080*%
%ADD134R,0.07280X0.00080*%
%ADD135R,0.07360X0.00080*%
%ADD136R,0.08320X0.00080*%
%ADD137R,0.07200X0.00080*%
%ADD138R,0.08000X0.00080*%
%ADD139R,0.07040X0.00080*%
%ADD140R,0.07120X0.00080*%
%ADD141R,0.07920X0.00080*%
%ADD142R,0.06960X0.00080*%
%ADD143R,0.07440X0.00080*%
%ADD144R,0.06800X0.00080*%
%ADD145R,0.06880X0.00080*%
%ADD146R,0.07040X0.00080*%
%ADD147R,0.06720X0.00080*%
%ADD148R,0.06640X0.00080*%
%ADD149R,0.06640X0.00080*%
%ADD150R,0.06720X0.00080*%
%ADD151R,0.06400X0.00080*%
%ADD152R,0.06160X0.00080*%
%ADD153R,0.06480X0.00080*%
%ADD154R,0.05680X0.00080*%
%ADD155R,0.06320X0.00080*%
%ADD156R,0.06240X0.00080*%
%ADD157R,0.06320X0.00080*%
%ADD158R,0.06080X0.00080*%
%ADD159R,0.04960X0.00080*%
%ADD160R,0.04640X0.00080*%
%ADD161R,0.05840X0.00080*%
%ADD162R,0.03920X0.00080*%
%ADD163R,0.03840X0.00080*%
%ADD164R,0.00080X0.00080*%
%ADD165R,0.01360X0.00080*%
%ADD166R,0.01200X0.00080*%
%ADD167R,0.01520X0.00080*%
%ADD168R,0.01760X0.00080*%
%ADD169R,0.02320X0.00080*%
%ADD170R,0.05520X0.00080*%
%ADD171R,0.02560X0.00080*%
%ADD172R,0.02400X0.00080*%
%ADD173R,0.02240X0.00080*%
%ADD174R,0.02160X0.00080*%
%ADD175R,0.05440X0.00080*%
%ADD176R,0.03040X0.00080*%
%ADD177R,0.01680X0.00080*%
%ADD178R,0.01440X0.00080*%
%ADD179R,0.00960X0.00080*%
%ADD180R,0.00560X0.00080*%
%ADD181R,0.05920X0.00080*%
%ADD182R,0.04320X0.00080*%
%ADD183R,0.05040X0.00080*%
%ADD184R,0.07120X0.00080*%
%ADD185R,0.15680X0.00080*%
%ADD186R,0.24000X0.00080*%
%ADD187R,0.23840X0.00080*%
%ADD188R,0.23360X0.00080*%
%ADD189R,0.23200X0.00080*%
%ADD190R,0.23120X0.00080*%
%ADD191R,0.23040X0.00080*%
%ADD192R,0.22960X0.00080*%
%ADD193R,0.22800X0.00080*%
%ADD194R,0.22640X0.00080*%
%ADD195R,0.22560X0.00080*%
%ADD196R,0.22480X0.00080*%
%ADD197R,0.22400X0.00080*%
%ADD198R,0.22240X0.00080*%
%ADD199R,0.22160X0.00080*%
%ADD200R,0.22080X0.00080*%
%ADD201R,0.21920X0.00080*%
%ADD202R,0.21840X0.00080*%
%ADD203R,0.21760X0.00080*%
%ADD204R,0.21680X0.00080*%
%ADD205R,0.21520X0.00080*%
%ADD206R,0.21360X0.00080*%
%ADD207R,0.21280X0.00080*%
%ADD208R,0.21200X0.00080*%
%ADD209R,0.21040X0.00080*%
%ADD210R,0.20880X0.00080*%
%ADD211R,0.20800X0.00080*%
%ADD212R,0.20640X0.00080*%
%ADD213R,0.20480X0.00080*%
%ADD214R,0.20320X0.00080*%
%ADD215R,0.20160X0.00080*%
%ADD216R,0.20000X0.00080*%
%ADD217R,0.19840X0.00080*%
%ADD218R,0.19760X0.00080*%
%ADD219R,0.19600X0.00080*%
%ADD220R,0.19440X0.00080*%
%ADD221R,0.19280X0.00080*%
%ADD222R,0.19120X0.00080*%
%ADD223R,0.19040X0.00080*%
%ADD224R,0.18880X0.00080*%
%ADD225R,0.18720X0.00080*%
%ADD226R,0.18480X0.00080*%
%ADD227R,0.18320X0.00080*%
%ADD228R,0.18160X0.00080*%
%ADD229R,0.17840X0.00080*%
%ADD230R,0.17600X0.00080*%
%ADD231R,0.17360X0.00080*%
%ADD232R,0.17200X0.00080*%
%ADD233R,0.17040X0.00080*%
%ADD234R,0.16880X0.00080*%
%ADD235R,0.16560X0.00080*%
%ADD236R,0.16400X0.00080*%
%ADD237R,0.16160X0.00080*%
%ADD238R,0.15920X0.00080*%
%ADD239R,0.15440X0.00080*%
%ADD240R,0.15200X0.00080*%
%ADD241R,0.14960X0.00080*%
%ADD242R,0.14640X0.00080*%
%ADD243R,0.14400X0.00080*%
%ADD244R,0.14080X0.00080*%
%ADD245R,0.13840X0.00080*%
%ADD246R,0.12960X0.00080*%
%ADD247R,0.12640X0.00080*%
%ADD248R,0.12320X0.00080*%
%ADD249R,0.12000X0.00080*%
%ADD250R,0.11680X0.00080*%
%ADD251R,0.11280X0.00080*%
%ADD252R,0.10960X0.00080*%
%ADD253R,0.10480X0.00080*%
%ADD254R,0.09600X0.00080*%
%ADD255R,0.09120X0.00080*%
%ADD256R,0.08560X0.00080*%
%ADD257C,0.00800*%
%ADD258C,0.00500*%
D10*
X0033333Y0005000D02*
X0033333Y0031250D01*
X0033546Y0031253D01*
X0033759Y0031260D01*
X0033972Y0031273D01*
X0034184Y0031291D01*
X0034396Y0031315D01*
X0034607Y0031343D01*
X0034817Y0031377D01*
X0035027Y0031416D01*
X0035236Y0031459D01*
X0035443Y0031508D01*
X0035649Y0031562D01*
X0035854Y0031621D01*
X0036057Y0031685D01*
X0036259Y0031754D01*
X0036459Y0031827D01*
X0036657Y0031906D01*
X0036853Y0031989D01*
X0037047Y0032077D01*
X0037239Y0032170D01*
X0037428Y0032268D01*
X0037615Y0032370D01*
X0037800Y0032476D01*
X0037982Y0032587D01*
X0038161Y0032703D01*
X0038337Y0032822D01*
X0038511Y0032946D01*
X0038681Y0033074D01*
X0038848Y0033207D01*
X0039012Y0033343D01*
X0039172Y0033483D01*
X0039329Y0033627D01*
X0039482Y0033775D01*
X0039632Y0033927D01*
X0039778Y0034082D01*
X0039920Y0034241D01*
X0040059Y0034403D01*
X0040193Y0034568D01*
X0040323Y0034737D01*
X0040449Y0034909D01*
X0040571Y0035084D01*
X0040689Y0035261D01*
X0040802Y0035442D01*
X0040911Y0035625D01*
X0041015Y0035811D01*
X0041115Y0035999D01*
X0041210Y0036190D01*
X0041300Y0036383D01*
X0041386Y0036578D01*
X0041467Y0036775D01*
X0041543Y0036974D01*
X0041614Y0037175D01*
X0041681Y0037377D01*
X0041742Y0037581D01*
X0041798Y0037787D01*
X0041850Y0037994D01*
X0041896Y0038202D01*
X0041937Y0038411D01*
X0041974Y0038621D01*
X0042005Y0038831D01*
X0042031Y0039043D01*
X0042051Y0039255D01*
X0042067Y0039468D01*
X0042077Y0039680D01*
X0042082Y0039893D01*
X0042082Y0040107D01*
X0042077Y0040320D01*
X0042067Y0040532D01*
X0042051Y0040745D01*
X0042031Y0040957D01*
X0042005Y0041169D01*
X0041974Y0041379D01*
X0041937Y0041589D01*
X0041896Y0041798D01*
X0041850Y0042006D01*
X0041798Y0042213D01*
X0041742Y0042419D01*
X0041681Y0042623D01*
X0041614Y0042825D01*
X0041543Y0043026D01*
X0041467Y0043225D01*
X0041386Y0043422D01*
X0041300Y0043617D01*
X0041210Y0043810D01*
X0041115Y0044001D01*
X0041015Y0044189D01*
X0040911Y0044375D01*
X0040802Y0044558D01*
X0040689Y0044739D01*
X0040571Y0044916D01*
X0040449Y0045091D01*
X0040323Y0045263D01*
X0040193Y0045432D01*
X0040059Y0045597D01*
X0039920Y0045759D01*
X0039778Y0045918D01*
X0039632Y0046073D01*
X0039482Y0046225D01*
X0039329Y0046373D01*
X0039172Y0046517D01*
X0039012Y0046657D01*
X0038848Y0046793D01*
X0038681Y0046926D01*
X0038511Y0047054D01*
X0038337Y0047178D01*
X0038161Y0047297D01*
X0037982Y0047413D01*
X0037800Y0047524D01*
X0037615Y0047630D01*
X0037428Y0047732D01*
X0037239Y0047830D01*
X0037047Y0047923D01*
X0036853Y0048011D01*
X0036657Y0048094D01*
X0036459Y0048173D01*
X0036259Y0048246D01*
X0036057Y0048315D01*
X0035854Y0048379D01*
X0035649Y0048438D01*
X0035443Y0048492D01*
X0035236Y0048541D01*
X0035027Y0048584D01*
X0034817Y0048623D01*
X0034607Y0048657D01*
X0034396Y0048685D01*
X0034184Y0048709D01*
X0033972Y0048727D01*
X0033759Y0048740D01*
X0033546Y0048747D01*
X0033333Y0048750D01*
X0033333Y0054961D01*
X0153333Y0055000D01*
X0153333Y0048750D01*
X0153119Y0048754D01*
X0152905Y0048753D01*
X0152691Y0048746D01*
X0152477Y0048735D01*
X0152264Y0048718D01*
X0152051Y0048696D01*
X0151839Y0048668D01*
X0151627Y0048636D01*
X0151416Y0048598D01*
X0151207Y0048556D01*
X0150998Y0048508D01*
X0150790Y0048455D01*
X0150584Y0048397D01*
X0150380Y0048334D01*
X0150177Y0048266D01*
X0149975Y0048193D01*
X0149776Y0048115D01*
X0149578Y0048032D01*
X0149383Y0047944D01*
X0149190Y0047852D01*
X0148999Y0047755D01*
X0148811Y0047653D01*
X0148625Y0047547D01*
X0148441Y0047436D01*
X0148261Y0047321D01*
X0148083Y0047202D01*
X0147909Y0047078D01*
X0147737Y0046950D01*
X0147569Y0046818D01*
X0147404Y0046681D01*
X0147242Y0046541D01*
X0147084Y0046397D01*
X0146929Y0046249D01*
X0146778Y0046097D01*
X0146631Y0045941D01*
X0146488Y0045782D01*
X0146348Y0045620D01*
X0146213Y0045454D01*
X0146081Y0045285D01*
X0145954Y0045113D01*
X0145831Y0044937D01*
X0145713Y0044759D01*
X0145598Y0044578D01*
X0145489Y0044394D01*
X0145384Y0044208D01*
X0145283Y0044019D01*
X0145187Y0043827D01*
X0145096Y0043634D01*
X0145009Y0043438D01*
X0144928Y0043240D01*
X0144851Y0043040D01*
X0144779Y0042838D01*
X0144712Y0042635D01*
X0144650Y0042430D01*
X0144593Y0042224D01*
X0144541Y0042016D01*
X0144495Y0041807D01*
X0144453Y0041597D01*
X0144416Y0041386D01*
X0144385Y0041174D01*
X0144359Y0040962D01*
X0144338Y0040748D01*
X0144322Y0040535D01*
X0144312Y0040321D01*
X0144307Y0040107D01*
X0144307Y0039893D01*
X0144312Y0039679D01*
X0144322Y0039465D01*
X0144338Y0039252D01*
X0144359Y0039038D01*
X0144385Y0038826D01*
X0144416Y0038614D01*
X0144453Y0038403D01*
X0144495Y0038193D01*
X0144541Y0037984D01*
X0144593Y0037776D01*
X0144650Y0037570D01*
X0144712Y0037365D01*
X0144779Y0037162D01*
X0144851Y0036960D01*
X0144928Y0036760D01*
X0145009Y0036562D01*
X0145096Y0036366D01*
X0145187Y0036173D01*
X0145283Y0035981D01*
X0145384Y0035792D01*
X0145489Y0035606D01*
X0145598Y0035422D01*
X0145713Y0035241D01*
X0145831Y0035063D01*
X0145954Y0034887D01*
X0146081Y0034715D01*
X0146213Y0034546D01*
X0146348Y0034380D01*
X0146488Y0034218D01*
X0146631Y0034059D01*
X0146778Y0033903D01*
X0146929Y0033751D01*
X0147084Y0033603D01*
X0147242Y0033459D01*
X0147404Y0033319D01*
X0147569Y0033182D01*
X0147737Y0033050D01*
X0147909Y0032922D01*
X0148083Y0032798D01*
X0148261Y0032679D01*
X0148441Y0032564D01*
X0148625Y0032453D01*
X0148811Y0032347D01*
X0148999Y0032245D01*
X0149190Y0032148D01*
X0149383Y0032056D01*
X0149578Y0031968D01*
X0149776Y0031885D01*
X0149975Y0031807D01*
X0150177Y0031734D01*
X0150380Y0031666D01*
X0150584Y0031603D01*
X0150790Y0031545D01*
X0150998Y0031492D01*
X0151207Y0031444D01*
X0151416Y0031402D01*
X0151627Y0031364D01*
X0151839Y0031332D01*
X0152051Y0031304D01*
X0152264Y0031282D01*
X0152477Y0031265D01*
X0152691Y0031254D01*
X0152905Y0031247D01*
X0153119Y0031246D01*
X0153333Y0031250D01*
X0153333Y0005000D01*
X0033333Y0005000D01*
D11*
X0080613Y0018800D03*
X0071253Y0034880D03*
D12*
X0080613Y0018880D03*
D13*
X0080573Y0018960D03*
X0071933Y0039680D03*
D14*
X0076733Y0039440D03*
X0080413Y0039680D03*
X0080973Y0035280D03*
X0071293Y0035280D03*
X0086573Y0021120D03*
X0080573Y0019040D03*
D15*
X0080533Y0019120D03*
X0072693Y0019600D03*
X0071333Y0035440D03*
X0076773Y0040240D03*
X0076773Y0040320D03*
X0080933Y0035360D03*
D16*
X0080933Y0035520D03*
X0076613Y0036080D03*
X0076613Y0036160D03*
X0076613Y0036240D03*
X0076613Y0036320D03*
X0076613Y0036400D03*
X0071413Y0035600D03*
X0071893Y0039200D03*
X0076773Y0040720D03*
X0076773Y0040800D03*
X0080533Y0019200D03*
D17*
X0072653Y0019280D03*
D18*
X0080493Y0019280D03*
X0086573Y0021280D03*
X0080893Y0035680D03*
X0076573Y0035840D03*
X0076573Y0035920D03*
X0080413Y0039280D03*
X0076813Y0041040D03*
D19*
X0072653Y0019360D03*
D20*
X0080493Y0019360D03*
X0080893Y0035760D03*
X0076813Y0041120D03*
X0076813Y0041200D03*
X0071853Y0038960D03*
X0071453Y0036000D03*
X0071453Y0035920D03*
D21*
X0071333Y0035120D03*
X0072693Y0019440D03*
D22*
X0080453Y0019440D03*
D23*
X0072653Y0019520D03*
X0071293Y0035200D03*
X0076653Y0038240D03*
X0076653Y0038320D03*
X0076653Y0038400D03*
X0071933Y0039600D03*
X0080973Y0035200D03*
X0077693Y0050240D03*
D24*
X0080533Y0038880D03*
X0080933Y0036080D03*
X0076613Y0035200D03*
X0076613Y0035120D03*
X0071493Y0036400D03*
X0071493Y0036480D03*
X0071813Y0038480D03*
X0071813Y0038560D03*
X0072693Y0020000D03*
X0080453Y0019520D03*
D25*
X0080453Y0019600D03*
X0072693Y0020080D03*
X0067333Y0021600D03*
X0076693Y0034880D03*
X0076693Y0034960D03*
X0080853Y0036320D03*
X0080533Y0038640D03*
X0080533Y0038720D03*
X0071733Y0038240D03*
X0077653Y0050160D03*
D26*
X0080413Y0039440D03*
X0076653Y0036560D03*
X0076653Y0036480D03*
X0072653Y0019680D03*
D27*
X0080373Y0019680D03*
X0071573Y0037040D03*
X0071573Y0037120D03*
X0071573Y0037200D03*
X0071573Y0037280D03*
X0071733Y0037840D03*
X0071733Y0037920D03*
X0071733Y0038000D03*
X0080533Y0038480D03*
X0080533Y0038560D03*
D28*
X0076773Y0040880D03*
X0076773Y0040960D03*
X0071893Y0039120D03*
X0071413Y0035760D03*
X0076533Y0036000D03*
X0080933Y0035600D03*
X0072693Y0019760D03*
D29*
X0080373Y0019760D03*
X0076693Y0034560D03*
X0076693Y0034640D03*
X0080773Y0036800D03*
X0080773Y0036880D03*
X0080773Y0036960D03*
X0080613Y0038000D03*
X0080613Y0038080D03*
X0080613Y0038160D03*
D30*
X0080453Y0039200D03*
X0076613Y0035760D03*
X0076613Y0035680D03*
X0071413Y0035840D03*
X0072693Y0019840D03*
D31*
X0080373Y0019840D03*
X0086373Y0021840D03*
X0076613Y0034400D03*
X0080693Y0037360D03*
X0080693Y0037440D03*
X0080693Y0037520D03*
X0080693Y0037600D03*
X0080693Y0037680D03*
D32*
X0076613Y0035280D03*
X0071493Y0036160D03*
X0071493Y0036240D03*
X0071813Y0038640D03*
X0071813Y0038720D03*
X0086533Y0021440D03*
X0072693Y0019920D03*
D33*
X0080373Y0019920D03*
X0086373Y0021920D03*
X0076853Y0041920D03*
D34*
X0076653Y0034320D03*
X0086333Y0022000D03*
X0080333Y0020000D03*
X0072733Y0020400D03*
D35*
X0080333Y0020080D03*
X0076813Y0042000D03*
D36*
X0080573Y0038400D03*
X0080573Y0038320D03*
X0080573Y0038240D03*
X0080813Y0036720D03*
X0080813Y0036640D03*
X0071613Y0037360D03*
X0071613Y0037440D03*
X0086413Y0021680D03*
X0072733Y0020160D03*
D37*
X0080333Y0020160D03*
X0086253Y0022240D03*
X0076813Y0042080D03*
D38*
X0076813Y0041760D03*
X0080653Y0037920D03*
X0080653Y0037840D03*
X0080653Y0037760D03*
X0080733Y0037280D03*
X0080733Y0037200D03*
X0080733Y0037120D03*
X0080733Y0037040D03*
X0076653Y0034480D03*
X0086413Y0021760D03*
X0072733Y0020240D03*
D39*
X0072773Y0020640D03*
X0080293Y0020240D03*
X0076693Y0034080D03*
X0077653Y0050080D03*
D40*
X0072733Y0020320D03*
D41*
X0072773Y0020720D03*
X0080293Y0020320D03*
D42*
X0080213Y0020400D03*
D43*
X0086293Y0022080D03*
X0072773Y0020480D03*
D44*
X0072813Y0020880D03*
X0080253Y0020480D03*
D45*
X0072773Y0020560D03*
D46*
X0080213Y0020560D03*
X0076693Y0033600D03*
D47*
X0076613Y0033520D03*
X0066213Y0038240D03*
X0066213Y0038320D03*
X0066293Y0038640D03*
X0066293Y0038720D03*
X0087413Y0038880D03*
X0087413Y0038960D03*
X0087413Y0039040D03*
X0087493Y0038720D03*
X0087493Y0038640D03*
X0087493Y0038560D03*
X0087493Y0038480D03*
X0087493Y0038400D03*
X0087653Y0037440D03*
X0087653Y0037360D03*
X0087653Y0037280D03*
X0080213Y0020640D03*
X0072853Y0021040D03*
D48*
X0080173Y0020720D03*
X0076653Y0033440D03*
X0087773Y0035280D03*
X0087773Y0035360D03*
X0087773Y0035440D03*
X0087773Y0035520D03*
X0087773Y0035600D03*
X0087773Y0035680D03*
X0087773Y0035760D03*
X0087773Y0035840D03*
X0087773Y0035920D03*
X0087773Y0036000D03*
X0087773Y0036080D03*
X0087773Y0036160D03*
X0087773Y0036240D03*
X0087373Y0039120D03*
X0087373Y0039200D03*
X0087293Y0039360D03*
X0087293Y0039440D03*
X0087293Y0039520D03*
X0087213Y0039680D03*
X0087213Y0039760D03*
X0066573Y0039760D03*
X0066573Y0039680D03*
X0066493Y0039520D03*
X0066493Y0039440D03*
X0066413Y0039200D03*
X0066413Y0039120D03*
X0066413Y0039040D03*
X0066333Y0038960D03*
X0066333Y0038880D03*
X0066333Y0038800D03*
X0066253Y0038560D03*
X0066253Y0038480D03*
X0066253Y0038400D03*
X0066173Y0038160D03*
X0066093Y0037920D03*
X0066013Y0037680D03*
X0066013Y0037600D03*
D49*
X0076653Y0033760D03*
X0076653Y0033680D03*
X0076813Y0042240D03*
X0072813Y0020800D03*
D50*
X0080173Y0020800D03*
X0076653Y0033360D03*
X0087693Y0034400D03*
X0087693Y0034480D03*
X0087693Y0034560D03*
X0087693Y0034640D03*
X0087693Y0034720D03*
X0087053Y0040160D03*
X0087053Y0040240D03*
X0086973Y0040400D03*
X0076813Y0042400D03*
X0066973Y0040720D03*
X0066893Y0040640D03*
X0066893Y0040560D03*
X0066813Y0040400D03*
X0065933Y0037120D03*
X0065933Y0037040D03*
X0065933Y0036960D03*
X0065853Y0036880D03*
X0065853Y0036800D03*
X0065853Y0036720D03*
X0065853Y0036640D03*
X0065853Y0036560D03*
X0065853Y0036480D03*
X0065853Y0036400D03*
X0065853Y0036320D03*
D51*
X0080373Y0040000D03*
X0066933Y0020880D03*
D52*
X0080093Y0020880D03*
X0087613Y0034000D03*
X0087613Y0034080D03*
X0087613Y0034160D03*
X0087613Y0034320D03*
X0086893Y0040640D03*
X0086813Y0040800D03*
X0067053Y0040960D03*
X0065853Y0036240D03*
X0065853Y0036160D03*
X0065853Y0036080D03*
X0065853Y0036000D03*
X0065853Y0035920D03*
X0065853Y0035840D03*
X0065853Y0035760D03*
X0065853Y0035680D03*
X0065853Y0035600D03*
X0065853Y0035520D03*
X0065853Y0035440D03*
D53*
X0071293Y0035040D03*
X0066973Y0020960D03*
X0086573Y0021040D03*
D54*
X0072813Y0020960D03*
X0087693Y0036800D03*
X0087693Y0036880D03*
X0087693Y0036960D03*
X0087693Y0037040D03*
X0087693Y0037120D03*
X0087693Y0037200D03*
X0087613Y0037520D03*
X0087613Y0037600D03*
X0087613Y0037680D03*
X0087613Y0037760D03*
X0087533Y0038240D03*
X0087533Y0038320D03*
X0076813Y0042320D03*
D55*
X0067253Y0041280D03*
X0067173Y0041200D03*
X0067173Y0041120D03*
X0065813Y0035360D03*
X0065813Y0035280D03*
X0065813Y0035200D03*
X0065813Y0035120D03*
X0065813Y0035040D03*
X0086693Y0040960D03*
X0086693Y0041040D03*
X0086773Y0040880D03*
X0087573Y0033920D03*
X0080053Y0020960D03*
D56*
X0086493Y0020960D03*
D57*
X0067013Y0021040D03*
X0080373Y0039760D03*
D58*
X0086413Y0041520D03*
X0065933Y0034160D03*
X0065933Y0034080D03*
X0065933Y0034000D03*
X0065933Y0033920D03*
X0080013Y0021040D03*
D59*
X0067093Y0021120D03*
X0076613Y0037680D03*
X0076693Y0039680D03*
D60*
X0067013Y0040800D03*
X0067013Y0040880D03*
X0076613Y0033200D03*
X0087013Y0040320D03*
X0086933Y0040480D03*
X0086933Y0040560D03*
X0072933Y0021120D03*
D61*
X0079853Y0021120D03*
X0087293Y0033040D03*
X0086173Y0041840D03*
X0066093Y0033280D03*
D62*
X0071893Y0039280D03*
X0076773Y0040480D03*
X0080373Y0039520D03*
X0076693Y0036720D03*
X0076693Y0036640D03*
X0080933Y0035440D03*
X0067093Y0021200D03*
D63*
X0076573Y0021200D03*
D64*
X0086573Y0021200D03*
X0071373Y0035520D03*
X0076733Y0040560D03*
X0076733Y0040640D03*
D65*
X0080413Y0039360D03*
X0071373Y0035680D03*
X0067133Y0021280D03*
D66*
X0076573Y0021280D03*
X0077373Y0048720D03*
D67*
X0067173Y0021360D03*
D68*
X0076533Y0021360D03*
X0076533Y0021440D03*
D69*
X0086533Y0021360D03*
X0076613Y0035520D03*
X0076613Y0035600D03*
X0080933Y0035840D03*
X0080453Y0039120D03*
X0071893Y0038880D03*
D70*
X0071853Y0038800D03*
X0071453Y0036080D03*
X0076653Y0035440D03*
X0076653Y0035360D03*
X0080893Y0035920D03*
X0080493Y0039040D03*
X0076813Y0041280D03*
X0076813Y0041360D03*
X0067213Y0021440D03*
D71*
X0067293Y0021520D03*
X0071453Y0036320D03*
X0080493Y0038960D03*
X0080893Y0036000D03*
D72*
X0077333Y0048640D03*
X0076533Y0021520D03*
D73*
X0086493Y0021520D03*
X0076653Y0035040D03*
X0080893Y0036160D03*
X0080893Y0036240D03*
X0080493Y0038800D03*
X0076813Y0041440D03*
X0076813Y0041520D03*
X0071773Y0038400D03*
X0071773Y0038320D03*
X0071533Y0036720D03*
X0071533Y0036640D03*
X0071533Y0036560D03*
D74*
X0076453Y0021600D03*
D75*
X0086493Y0021600D03*
X0080893Y0036400D03*
X0076813Y0041600D03*
X0076813Y0041680D03*
X0071773Y0038160D03*
X0071773Y0038080D03*
X0071533Y0036960D03*
X0071533Y0036880D03*
X0071533Y0036800D03*
D76*
X0074333Y0021680D03*
D77*
X0074373Y0021760D03*
X0077333Y0047120D03*
D78*
X0074333Y0021920D03*
X0074333Y0021840D03*
D79*
X0074333Y0022000D03*
X0074333Y0022080D03*
D80*
X0074333Y0022160D03*
D81*
X0086293Y0022160D03*
X0076693Y0034160D03*
D82*
X0074413Y0022240D03*
D83*
X0076893Y0022320D03*
X0076893Y0022400D03*
X0077053Y0043440D03*
X0077053Y0043520D03*
D84*
X0077053Y0043360D03*
X0077053Y0043280D03*
X0076893Y0022720D03*
X0076893Y0022640D03*
X0076893Y0022560D03*
X0076893Y0022480D03*
D85*
X0076853Y0022800D03*
D86*
X0076893Y0022880D03*
X0076893Y0022960D03*
X0076893Y0023040D03*
X0076893Y0023120D03*
X0076893Y0023200D03*
D87*
X0076853Y0023280D03*
X0076853Y0023360D03*
X0077013Y0043040D03*
D88*
X0077013Y0042880D03*
X0076853Y0023440D03*
D89*
X0076773Y0023520D03*
X0077013Y0042720D03*
X0077013Y0042800D03*
D90*
X0076733Y0023600D03*
D91*
X0076693Y0023680D03*
D92*
X0076613Y0023760D03*
D93*
X0076573Y0023840D03*
D94*
X0076533Y0023920D03*
D95*
X0076533Y0024000D03*
D96*
X0076533Y0024080D03*
D97*
X0076533Y0024160D03*
D98*
X0076493Y0024240D03*
D99*
X0076533Y0024320D03*
D100*
X0076533Y0024400D03*
X0076533Y0024480D03*
D101*
X0076533Y0024560D03*
X0076533Y0024640D03*
D102*
X0076533Y0024720D03*
D103*
X0076573Y0024800D03*
D104*
X0076533Y0024880D03*
X0076533Y0024960D03*
D105*
X0076573Y0025040D03*
X0076573Y0025120D03*
D106*
X0076533Y0025200D03*
X0076533Y0025280D03*
D107*
X0076573Y0025360D03*
D108*
X0076533Y0025440D03*
X0076533Y0025520D03*
D109*
X0076573Y0025600D03*
X0076573Y0025680D03*
X0076573Y0025760D03*
D110*
X0076573Y0025840D03*
X0076573Y0025920D03*
X0076573Y0026000D03*
X0076573Y0026080D03*
X0076573Y0026160D03*
D111*
X0076613Y0026240D03*
X0076533Y0026560D03*
X0076533Y0026640D03*
D112*
X0076573Y0026720D03*
X0076573Y0026800D03*
X0076573Y0026480D03*
X0076573Y0026400D03*
X0076573Y0026320D03*
D113*
X0076533Y0026880D03*
X0076533Y0026960D03*
D114*
X0076573Y0027040D03*
X0076573Y0027120D03*
X0076573Y0027200D03*
X0076573Y0027280D03*
X0076573Y0027360D03*
X0076573Y0027440D03*
D115*
X0076573Y0027520D03*
X0076573Y0027600D03*
X0076573Y0027680D03*
X0076573Y0027760D03*
X0076573Y0027840D03*
X0076573Y0027920D03*
D116*
X0076613Y0028000D03*
X0076613Y0028080D03*
X0076613Y0028160D03*
X0076613Y0028240D03*
X0076613Y0028320D03*
X0076613Y0028400D03*
X0076613Y0028480D03*
D117*
X0076613Y0028560D03*
X0076613Y0028640D03*
X0076613Y0028720D03*
X0076613Y0028800D03*
X0076613Y0028880D03*
X0076613Y0028960D03*
X0076613Y0029040D03*
D118*
X0076653Y0029120D03*
X0076653Y0029200D03*
X0076653Y0029280D03*
X0076653Y0029360D03*
X0076653Y0029440D03*
X0076653Y0029520D03*
X0076653Y0029600D03*
X0076733Y0031360D03*
X0076733Y0031440D03*
X0076733Y0031520D03*
X0076733Y0031600D03*
X0076733Y0031680D03*
X0076733Y0031760D03*
X0076733Y0031840D03*
X0076733Y0031920D03*
X0076733Y0032000D03*
D119*
X0076693Y0032080D03*
X0076693Y0032160D03*
X0076693Y0031280D03*
X0076693Y0031200D03*
X0076693Y0031120D03*
X0076693Y0031040D03*
X0076693Y0030960D03*
X0076693Y0030880D03*
X0076693Y0030800D03*
X0076693Y0030720D03*
X0076693Y0030480D03*
X0076693Y0030400D03*
X0076693Y0030320D03*
X0076693Y0030240D03*
X0076693Y0030160D03*
X0076693Y0029680D03*
D120*
X0076653Y0029760D03*
X0076653Y0029840D03*
X0076653Y0029920D03*
X0076653Y0030000D03*
X0076653Y0030080D03*
D121*
X0076733Y0030560D03*
X0076733Y0030640D03*
D122*
X0067253Y0032240D03*
D123*
X0076813Y0032240D03*
X0077453Y0049440D03*
D124*
X0086453Y0032240D03*
D125*
X0066773Y0032320D03*
X0077573Y0049760D03*
D126*
X0071813Y0032320D03*
D127*
X0076853Y0032320D03*
D128*
X0073133Y0032960D03*
X0072493Y0032640D03*
X0080893Y0034880D03*
X0081373Y0032400D03*
X0082653Y0032320D03*
D129*
X0086693Y0032320D03*
X0085253Y0042640D03*
X0066693Y0032400D03*
D130*
X0076613Y0032400D03*
D131*
X0086773Y0032400D03*
X0085413Y0042560D03*
X0068613Y0042560D03*
D132*
X0066533Y0032480D03*
D133*
X0076653Y0032480D03*
D134*
X0086933Y0032480D03*
X0085653Y0042400D03*
D135*
X0085533Y0042480D03*
X0068413Y0042480D03*
X0066493Y0032560D03*
D136*
X0076573Y0032560D03*
D137*
X0066413Y0032640D03*
X0086973Y0032560D03*
X0077613Y0049840D03*
D138*
X0076653Y0032640D03*
D139*
X0087053Y0032640D03*
D140*
X0085733Y0042320D03*
X0066373Y0032720D03*
D141*
X0076613Y0032720D03*
D142*
X0066293Y0032800D03*
X0085813Y0042240D03*
X0087093Y0032720D03*
D143*
X0076453Y0032800D03*
D144*
X0066213Y0032960D03*
X0076773Y0042560D03*
X0085973Y0042080D03*
X0087173Y0032800D03*
D145*
X0085933Y0042160D03*
X0068093Y0042240D03*
X0066253Y0032880D03*
D146*
X0076493Y0032880D03*
X0068173Y0042320D03*
D147*
X0068013Y0042160D03*
X0087213Y0032880D03*
D148*
X0076693Y0032960D03*
X0066133Y0033120D03*
X0066133Y0033200D03*
X0067893Y0042080D03*
X0086133Y0041920D03*
D149*
X0086053Y0042000D03*
X0087253Y0032960D03*
D150*
X0066173Y0033040D03*
D151*
X0066013Y0033520D03*
X0066013Y0033600D03*
X0076653Y0033040D03*
X0087373Y0033200D03*
X0087373Y0033280D03*
X0086333Y0041680D03*
D152*
X0086533Y0041360D03*
X0086533Y0041280D03*
X0086613Y0041200D03*
X0076773Y0042480D03*
X0067493Y0041680D03*
X0065893Y0034560D03*
X0065893Y0034480D03*
X0065893Y0034400D03*
X0065893Y0034320D03*
X0065893Y0034240D03*
X0076693Y0033120D03*
X0087493Y0033520D03*
X0087493Y0033600D03*
D153*
X0087333Y0033120D03*
X0086213Y0041760D03*
X0077653Y0049920D03*
X0067813Y0042000D03*
X0067733Y0041920D03*
X0066053Y0033440D03*
X0066053Y0033360D03*
D154*
X0065973Y0037200D03*
X0065973Y0037280D03*
X0065973Y0037360D03*
X0065973Y0037440D03*
X0065973Y0037520D03*
X0066053Y0037760D03*
X0066053Y0037840D03*
X0066453Y0039280D03*
X0066453Y0039360D03*
X0066533Y0039600D03*
X0066613Y0039840D03*
X0066613Y0039920D03*
X0066693Y0040000D03*
X0066693Y0040080D03*
X0066693Y0040160D03*
X0066773Y0040240D03*
X0066773Y0040320D03*
X0066853Y0040480D03*
X0076693Y0033280D03*
X0087733Y0034800D03*
X0087733Y0034880D03*
X0087733Y0034960D03*
X0087733Y0035040D03*
X0087733Y0035120D03*
X0087733Y0035200D03*
X0087253Y0039600D03*
X0087173Y0039840D03*
X0087173Y0039920D03*
X0087093Y0040000D03*
X0087093Y0040080D03*
X0077653Y0050000D03*
D155*
X0086453Y0041440D03*
X0087413Y0033360D03*
X0067653Y0041840D03*
D156*
X0087453Y0033440D03*
D157*
X0086373Y0041600D03*
X0067573Y0041760D03*
X0065973Y0033840D03*
X0065973Y0033760D03*
X0065973Y0033680D03*
D158*
X0065853Y0034640D03*
X0065853Y0034720D03*
X0065853Y0034800D03*
X0065853Y0034880D03*
X0065853Y0034960D03*
X0067293Y0041360D03*
X0067373Y0041440D03*
X0067373Y0041520D03*
X0067453Y0041600D03*
X0086653Y0041120D03*
X0087533Y0033840D03*
X0087533Y0033760D03*
X0087533Y0033680D03*
D159*
X0076653Y0033840D03*
X0076653Y0033920D03*
X0076653Y0034000D03*
D160*
X0076653Y0034240D03*
D161*
X0087653Y0034240D03*
X0086853Y0040720D03*
D162*
X0080853Y0036560D03*
X0080853Y0036480D03*
X0076693Y0034720D03*
X0071653Y0037520D03*
X0071653Y0037600D03*
X0071653Y0037680D03*
X0071653Y0037760D03*
D163*
X0076653Y0034800D03*
D164*
X0081173Y0034880D03*
X0081333Y0034880D03*
D165*
X0071253Y0034960D03*
D166*
X0080933Y0034960D03*
D167*
X0080933Y0035040D03*
D168*
X0080973Y0035120D03*
X0080413Y0039840D03*
D169*
X0076773Y0039600D03*
X0076773Y0039520D03*
X0071973Y0039520D03*
X0071333Y0035360D03*
D170*
X0066133Y0038000D03*
X0066133Y0038080D03*
X0087333Y0039280D03*
X0087573Y0038160D03*
X0087573Y0038080D03*
X0087573Y0038000D03*
X0087573Y0037920D03*
X0087573Y0037840D03*
X0087733Y0036720D03*
X0087733Y0036640D03*
X0087733Y0036560D03*
X0087733Y0036480D03*
X0087733Y0036400D03*
X0087733Y0036320D03*
D171*
X0076653Y0036800D03*
X0076653Y0036880D03*
X0076653Y0036960D03*
X0076653Y0037040D03*
X0076653Y0037120D03*
X0076733Y0040160D03*
X0076733Y0040400D03*
X0071933Y0039360D03*
D172*
X0071933Y0039440D03*
X0076733Y0039760D03*
X0076733Y0039840D03*
X0076733Y0039920D03*
X0076733Y0040000D03*
X0076733Y0040080D03*
X0076653Y0037600D03*
X0076653Y0037520D03*
X0076653Y0037440D03*
X0076653Y0037360D03*
X0076653Y0037280D03*
X0076653Y0037200D03*
X0080413Y0039600D03*
D173*
X0076653Y0038160D03*
X0076653Y0038080D03*
X0076653Y0038000D03*
X0076653Y0037920D03*
X0076653Y0037840D03*
X0076653Y0037760D03*
D174*
X0076693Y0038480D03*
X0076693Y0038560D03*
X0076693Y0038640D03*
X0076693Y0038720D03*
X0076693Y0038800D03*
X0076693Y0038880D03*
X0076693Y0038960D03*
X0076693Y0039040D03*
X0076693Y0039120D03*
X0076693Y0039200D03*
X0076693Y0039280D03*
X0076693Y0039360D03*
D175*
X0087453Y0038800D03*
D176*
X0071853Y0039040D03*
D177*
X0071973Y0039760D03*
D178*
X0071933Y0039840D03*
X0080413Y0039920D03*
D179*
X0071933Y0039920D03*
D180*
X0080373Y0040080D03*
D181*
X0067133Y0041040D03*
D182*
X0076813Y0041840D03*
D183*
X0076853Y0042160D03*
D184*
X0068293Y0042400D03*
D185*
X0072653Y0042640D03*
X0077373Y0048000D03*
D186*
X0077053Y0042960D03*
D187*
X0077053Y0043120D03*
X0077053Y0043200D03*
D188*
X0077053Y0043600D03*
X0077053Y0043680D03*
D189*
X0077053Y0043760D03*
D190*
X0077093Y0043840D03*
D191*
X0077053Y0043920D03*
D192*
X0077093Y0044000D03*
D193*
X0077093Y0044080D03*
X0077093Y0044160D03*
D194*
X0077093Y0044240D03*
D195*
X0077133Y0044320D03*
D196*
X0077093Y0044400D03*
D197*
X0077133Y0044480D03*
D198*
X0077133Y0044560D03*
D199*
X0077093Y0044640D03*
D200*
X0077133Y0044720D03*
D201*
X0077133Y0044800D03*
D202*
X0077173Y0044880D03*
D203*
X0077133Y0044960D03*
D204*
X0077173Y0045040D03*
D205*
X0077173Y0045120D03*
D206*
X0077173Y0045200D03*
D207*
X0077213Y0045280D03*
D208*
X0077173Y0045360D03*
D209*
X0077173Y0045440D03*
D210*
X0077173Y0045520D03*
D211*
X0077213Y0045600D03*
D212*
X0077213Y0045680D03*
D213*
X0077213Y0045760D03*
X0077213Y0045840D03*
D214*
X0077213Y0045920D03*
D215*
X0077213Y0046000D03*
D216*
X0077213Y0046080D03*
D217*
X0077213Y0046160D03*
D218*
X0077253Y0046240D03*
D219*
X0077253Y0046320D03*
D220*
X0077253Y0046400D03*
D221*
X0077253Y0046480D03*
D222*
X0077253Y0046560D03*
D223*
X0077293Y0046640D03*
D224*
X0077293Y0046720D03*
D225*
X0077293Y0046800D03*
D226*
X0077333Y0046880D03*
D227*
X0077333Y0046960D03*
D228*
X0077333Y0047040D03*
D229*
X0077333Y0047200D03*
D230*
X0077373Y0047280D03*
D231*
X0077333Y0047360D03*
D232*
X0077333Y0047440D03*
D233*
X0077333Y0047520D03*
D234*
X0077333Y0047600D03*
D235*
X0077333Y0047680D03*
D236*
X0077333Y0047760D03*
D237*
X0077373Y0047840D03*
D238*
X0077333Y0047920D03*
D239*
X0077333Y0048080D03*
D240*
X0077373Y0048160D03*
D241*
X0077333Y0048240D03*
D242*
X0077333Y0048320D03*
D243*
X0077293Y0048400D03*
D244*
X0077293Y0048480D03*
D245*
X0077333Y0048560D03*
D246*
X0077373Y0048800D03*
D247*
X0077373Y0048880D03*
D248*
X0077373Y0048960D03*
D249*
X0077373Y0049040D03*
D250*
X0077373Y0049120D03*
D251*
X0077413Y0049200D03*
D252*
X0077413Y0049280D03*
D253*
X0077413Y0049360D03*
D254*
X0077453Y0049520D03*
D255*
X0077453Y0049600D03*
D256*
X0077493Y0049680D03*
D257*
X0120833Y0044813D02*
X0120833Y0032687D01*
X0125951Y0028750D02*
X0135715Y0028750D01*
X0140833Y0032687D02*
X0140833Y0044813D01*
X0135715Y0048750D02*
X0125833Y0048750D01*
X0125833Y0038750D02*
X0125835Y0038891D01*
X0125841Y0039032D01*
X0125851Y0039172D01*
X0125865Y0039312D01*
X0125883Y0039452D01*
X0125904Y0039591D01*
X0125930Y0039730D01*
X0125959Y0039868D01*
X0125993Y0040004D01*
X0126030Y0040140D01*
X0126071Y0040275D01*
X0126116Y0040409D01*
X0126165Y0040541D01*
X0126217Y0040672D01*
X0126273Y0040801D01*
X0126333Y0040928D01*
X0126396Y0041054D01*
X0126462Y0041178D01*
X0126533Y0041301D01*
X0126606Y0041421D01*
X0126683Y0041539D01*
X0126763Y0041655D01*
X0126847Y0041768D01*
X0126933Y0041879D01*
X0127023Y0041988D01*
X0127116Y0042094D01*
X0127211Y0042197D01*
X0127310Y0042298D01*
X0127411Y0042396D01*
X0127515Y0042491D01*
X0127622Y0042583D01*
X0127731Y0042672D01*
X0127843Y0042757D01*
X0127957Y0042840D01*
X0128073Y0042920D01*
X0128192Y0042996D01*
X0128313Y0043068D01*
X0128435Y0043138D01*
X0128560Y0043203D01*
X0128686Y0043266D01*
X0128814Y0043324D01*
X0128944Y0043379D01*
X0129075Y0043431D01*
X0129208Y0043478D01*
X0129342Y0043522D01*
X0129477Y0043563D01*
X0129613Y0043599D01*
X0129750Y0043631D01*
X0129888Y0043660D01*
X0130026Y0043685D01*
X0130166Y0043705D01*
X0130306Y0043722D01*
X0130446Y0043735D01*
X0130587Y0043744D01*
X0130727Y0043749D01*
X0130868Y0043750D01*
X0131009Y0043747D01*
X0131150Y0043740D01*
X0131290Y0043729D01*
X0131430Y0043714D01*
X0131570Y0043695D01*
X0131709Y0043673D01*
X0131847Y0043646D01*
X0131985Y0043616D01*
X0132121Y0043581D01*
X0132257Y0043543D01*
X0132391Y0043501D01*
X0132525Y0043455D01*
X0132657Y0043406D01*
X0132787Y0043352D01*
X0132916Y0043295D01*
X0133043Y0043235D01*
X0133169Y0043171D01*
X0133292Y0043103D01*
X0133414Y0043032D01*
X0133534Y0042958D01*
X0133651Y0042880D01*
X0133766Y0042799D01*
X0133879Y0042715D01*
X0133990Y0042628D01*
X0134098Y0042537D01*
X0134203Y0042444D01*
X0134306Y0042347D01*
X0134406Y0042248D01*
X0134503Y0042146D01*
X0134597Y0042041D01*
X0134688Y0041934D01*
X0134776Y0041824D01*
X0134861Y0041712D01*
X0134943Y0041597D01*
X0135022Y0041480D01*
X0135097Y0041361D01*
X0135169Y0041240D01*
X0135237Y0041117D01*
X0135302Y0040992D01*
X0135364Y0040865D01*
X0135421Y0040736D01*
X0135476Y0040606D01*
X0135526Y0040475D01*
X0135573Y0040342D01*
X0135616Y0040208D01*
X0135655Y0040072D01*
X0135690Y0039936D01*
X0135722Y0039799D01*
X0135749Y0039661D01*
X0135773Y0039522D01*
X0135793Y0039382D01*
X0135809Y0039242D01*
X0135821Y0039102D01*
X0135829Y0038961D01*
X0135833Y0038820D01*
X0135833Y0038680D01*
X0135829Y0038539D01*
X0135821Y0038398D01*
X0135809Y0038258D01*
X0135793Y0038118D01*
X0135773Y0037978D01*
X0135749Y0037839D01*
X0135722Y0037701D01*
X0135690Y0037564D01*
X0135655Y0037428D01*
X0135616Y0037292D01*
X0135573Y0037158D01*
X0135526Y0037025D01*
X0135476Y0036894D01*
X0135421Y0036764D01*
X0135364Y0036635D01*
X0135302Y0036508D01*
X0135237Y0036383D01*
X0135169Y0036260D01*
X0135097Y0036139D01*
X0135022Y0036020D01*
X0134943Y0035903D01*
X0134861Y0035788D01*
X0134776Y0035676D01*
X0134688Y0035566D01*
X0134597Y0035459D01*
X0134503Y0035354D01*
X0134406Y0035252D01*
X0134306Y0035153D01*
X0134203Y0035056D01*
X0134098Y0034963D01*
X0133990Y0034872D01*
X0133879Y0034785D01*
X0133766Y0034701D01*
X0133651Y0034620D01*
X0133534Y0034542D01*
X0133414Y0034468D01*
X0133292Y0034397D01*
X0133169Y0034329D01*
X0133043Y0034265D01*
X0132916Y0034205D01*
X0132787Y0034148D01*
X0132657Y0034094D01*
X0132525Y0034045D01*
X0132391Y0033999D01*
X0132257Y0033957D01*
X0132121Y0033919D01*
X0131985Y0033884D01*
X0131847Y0033854D01*
X0131709Y0033827D01*
X0131570Y0033805D01*
X0131430Y0033786D01*
X0131290Y0033771D01*
X0131150Y0033760D01*
X0131009Y0033753D01*
X0130868Y0033750D01*
X0130727Y0033751D01*
X0130587Y0033756D01*
X0130446Y0033765D01*
X0130306Y0033778D01*
X0130166Y0033795D01*
X0130026Y0033815D01*
X0129888Y0033840D01*
X0129750Y0033869D01*
X0129613Y0033901D01*
X0129477Y0033937D01*
X0129342Y0033978D01*
X0129208Y0034022D01*
X0129075Y0034069D01*
X0128944Y0034121D01*
X0128814Y0034176D01*
X0128686Y0034234D01*
X0128560Y0034297D01*
X0128435Y0034362D01*
X0128313Y0034432D01*
X0128192Y0034504D01*
X0128073Y0034580D01*
X0127957Y0034660D01*
X0127843Y0034743D01*
X0127731Y0034828D01*
X0127622Y0034917D01*
X0127515Y0035009D01*
X0127411Y0035104D01*
X0127310Y0035202D01*
X0127211Y0035303D01*
X0127116Y0035406D01*
X0127023Y0035512D01*
X0126933Y0035621D01*
X0126847Y0035732D01*
X0126763Y0035845D01*
X0126683Y0035961D01*
X0126606Y0036079D01*
X0126533Y0036199D01*
X0126462Y0036322D01*
X0126396Y0036446D01*
X0126333Y0036572D01*
X0126273Y0036699D01*
X0126217Y0036828D01*
X0126165Y0036959D01*
X0126116Y0037091D01*
X0126071Y0037225D01*
X0126030Y0037360D01*
X0125993Y0037496D01*
X0125959Y0037632D01*
X0125930Y0037770D01*
X0125904Y0037909D01*
X0125883Y0038048D01*
X0125865Y0038188D01*
X0125851Y0038328D01*
X0125841Y0038468D01*
X0125835Y0038609D01*
X0125833Y0038750D01*
D258*
X0129316Y0049850D02*
X0130583Y0049850D01*
X0129949Y0049850D02*
X0129949Y0051752D01*
X0130583Y0051118D01*
X0131525Y0051435D02*
X0131842Y0051752D01*
X0132476Y0051752D01*
X0132793Y0051435D01*
X0132793Y0051118D01*
X0132476Y0050801D01*
X0131842Y0050801D01*
X0131525Y0050484D01*
X0131525Y0050167D01*
X0131842Y0049850D01*
X0132476Y0049850D01*
X0132793Y0050167D01*
M02*
