#ifndef MUSIC_H
#define MUSIC_H

const uint16_t xmastree_bgm[] PROGMEM = {
 NOTE_REST,600, NOTE_C5,600, NOTE_F5,450, NOTE_F5,150, NOTE_F5,600, NOTE_G5,600, NOTE_A5,450, NOTE_A5,150,
 NOTE_A5,900, NOTE_A5,300, NOTE_G5,300, NOTE_A5,300, NOTE_AS5,600, NOTE_E5,600, NOTE_G5,600, NOTE_F5,600,
 NOTE_C5,600, NOTE_F5,450, NOTE_F5,150, NOTE_F5,600, NOTE_G5,600, NOTE_A5,450, NOTE_A5,150, NOTE_A5,900,
 NOTE_A5,300, NOTE_G5,300, NOTE_A5,300, NOTE_AS5,600, NOTE_E5,600, NOTE_G5,600, NOTE_F5,600, NOTE_REST,300,
 NOTE_C6,300, NOTE_C6,300, NOTE_A5,300, NOTE_D6,900, NOTE_C6,300, NOTE_C6,300, NOTE_AS5,300, NOTE_AS5,900,
 NOTE_AS5,300, NOTE_AS5,300, NOTE_G5,300, NOTE_C6,900, NOTE_AS5,300, NOTE_AS5,300, NOTE_A5,300, NOTE_A5,600,
 NOTE_C5,600, NOTE_F5,450, NOTE_F5,150, NOTE_F5,600, NOTE_G5,600, NOTE_A5,450, NOTE_A5,150, NOTE_A5,900,
 NOTE_A5,300, NOTE_G5,300, NOTE_A5,300, NOTE_AS5,600, NOTE_E5,600, NOTE_G5,600, NOTE_F5,600,
 TONES_END
};

#endif
